<svg width="464" height="253" viewBox="0 0 464 253" fill="none" xmlns="http://www.w3.org/2000/svg">
<path opacity="0.2" d="M30.5362 58.9998C46.2771 58.9998 59.0375 46.4637 59.0375 30.9998C59.0375 15.5358 46.2771 2.99976 30.5362 2.99976C14.7954 2.99976 2.03491 15.5358 2.03491 30.9998C2.03491 46.4637 14.7954 58.9998 30.5362 58.9998Z" fill="black"/>
<path opacity="0.1" d="M30.5244 57.9695C14.743 57.9695 2.03763 45.488 2.03763 29.9838C2.03763 29.7491 2.03152 29.5174 2.03763 29.2842C2.41427 44.461 14.9814 56.5699 30.5244 56.5699C46.0668 56.5699 58.6345 44.4612 59.0111 29.2842C59.0173 29.5174 59.0111 29.7491 59.0111 29.9838C59.0111 45.4876 46.3062 57.9695 30.5244 57.9695Z" fill="black"/>
<path d="M6.81881 14.5039C6.32844 15.2359 5.87487 16.0202 5.41524 16.7968C3.20015 20.8577 2.03927 25.3927 2.03552 29.9998C2.03552 37.4258 5.03829 44.5476 10.3833 49.7986C15.7282 55.0496 22.9775 57.9995 30.5365 57.9995C30.6823 57.9954 30.8281 57.9902 30.9738 57.9839L44.4688 35.9373C43.3878 37.6671 38.8839 39.8822 36.9619 40.9724C30.8118 44.4607 23.0018 42.2059 19.451 36.1638L6.81881 14.5039H6.81881Z" fill="#6199F6"/>
<path d="M30.5693 16C30.5378 16 35.0928 17.9959 37.0146 19.0859C41.9258 21.8715 42.4384 31.8205 42.45 35.8474L43.2731 36.3162L42.4341 37.7419C42.434 37.7433 42.4341 37.8083 42.4341 37.8083L42.116 38.281L30.5375 57.9839C30.613 57.9858 30.6887 57.9921 30.7641 57.9917C31.158 57.9854 31.5517 57.9711 31.945 57.9487C32.1733 57.9383 32.4012 57.9371 32.6289 57.9214C33.5269 57.8563 34.4212 57.7494 35.3089 57.6011C35.3674 57.5915 35.4254 57.5798 35.4838 57.5698C42.0824 56.4274 48.0605 53.0377 52.368 47.9958C56.6756 42.9539 59.0373 36.5823 59.0385 29.9998C59.0256 25.0811 57.694 20.2524 55.1777 16H30.5693Z" fill="#A2C2FA"/>
<path d="M30.5255 2.00024C30.3611 2.00405 30.1968 2.00926 30.0325 2.01586C29.5284 2.02096 29.0246 2.0392 28.5215 2.07055C28.4937 2.07442 28.4659 2.07832 28.438 2.08227C27.5749 2.14535 26.7152 2.24701 25.8615 2.38696C25.7743 2.40104 25.6861 2.41149 25.5991 2.42602C25.5938 2.42691 25.5885 2.429 25.5832 2.42992C24.6848 2.58448 23.7944 2.78132 22.9152 3.01976C21.0827 3.51998 19.3058 4.19914 17.611 5.04708C17.3987 5.16292 17.188 5.28142 16.9788 5.40255C12.3485 7.86547 8.50318 11.5404 5.86945 16.0196L17.452 35.7303L17.6945 36.2069L17.7541 36.242L18.2989 37.1717L23.2969 41.117L24.6846 40.5349L26.275 41.5193C26.0868 41.1785 25.8982 40.6703 25.7144 40.1013L35.0623 36.1756L25.3883 19.711C26.2733 17.7053 27.8207 16.2987 30.5374 16.0001H55.1776C54.7023 15.1914 54.1861 14.4066 53.6309 13.6485C53.0863 12.9075 52.5051 12.1931 51.8893 11.5079C51.8642 11.4792 51.839 11.4506 51.8138 11.422C51.2272 10.7731 50.6102 10.1513 49.9649 9.55874C49.9002 9.49986 49.8353 9.44126 49.7701 9.38297C49.144 8.81951 48.4925 8.28383 47.8178 7.77752C47.7267 7.70927 47.6353 7.64156 47.5434 7.57439C46.8913 7.09713 46.2187 6.64751 45.5275 6.22675C45.3983 6.14761 45.2684 6.06948 45.1378 5.99238C44.4771 5.60364 43.8006 5.24137 43.11 4.90646C42.9189 4.8145 42.7267 4.72466 42.5335 4.63693C41.8943 4.34645 41.2444 4.07934 40.5852 3.83616C40.336 3.74156 40.0855 3.65041 39.8337 3.56273C39.2148 3.35412 38.5889 3.16651 37.9569 3.00023C37.6442 2.91554 37.3301 2.83611 37.0146 2.76195C36.4339 2.62938 35.8491 2.51475 35.2611 2.41821C34.8898 2.35628 34.5173 2.30158 34.1438 2.25415C33.6126 2.18732 33.0796 2.13522 32.5454 2.0979C31.8775 2.04216 31.2077 2.00959 30.5374 2.00024C30.5334 2.00024 30.5294 2.00024 30.5254 2.00024H30.5255Z" fill="#396BD7"/>
<path opacity="0.2" d="M30.5363 2C26.7934 1.99996 23.0872 2.72417 19.6292 4.13128C16.1712 5.5384 13.0293 7.60086 10.3827 10.2009C7.73606 12.801 5.63667 15.8877 4.20436 19.2848C2.77205 22.6819 2.03487 26.323 2.03491 30C2.03941 30.1641 2.04537 30.3282 2.0528 30.4922C2.18814 23.1575 5.24816 16.1679 10.5747 11.0267C15.9013 5.88551 23.069 3.00331 30.5363 3C38.0031 3.00591 45.1694 5.89031 50.4941 11.0329C55.8188 16.1756 58.8765 23.1656 59.0098 30.5C59.0199 30.3334 59.0285 30.1667 59.0356 30C59.0357 22.5742 56.0332 15.4526 50.6886 10.2016C45.3439 4.95062 38.095 2.00043 30.5363 2Z" fill="white"/>
<path opacity="0.2" d="M30.5371 16.9998C38.4075 16.9998 44.7877 23.2678 44.7877 30.9998C44.7877 38.7317 38.4075 44.9998 30.5371 44.9998C22.6666 44.9998 16.2864 38.7317 16.2864 30.9998C16.2864 23.2678 22.6666 16.9998 30.5371 16.9998Z" fill="black"/>
<path d="M30.5371 15.9998C38.4075 15.9998 44.7877 22.2678 44.7877 29.9998C44.7877 37.7317 38.4075 43.9998 30.5371 43.9998C22.6666 43.9998 16.2864 37.7317 16.2864 29.9998C16.2864 22.2678 22.6666 15.9998 30.5371 15.9998Z" fill="white"/>
<path d="M30.5371 18.9998C36.721 18.9998 41.734 23.9246 41.734 29.9998C41.734 36.0749 36.721 40.9998 30.5371 40.9998C24.3531 40.9998 19.3401 36.0749 19.3401 29.9998C19.3401 23.9246 24.3531 18.9998 30.5371 18.9998Z" fill="#4688F4"/>
<path opacity="0.2" fill-rule="evenodd" clip-rule="evenodd" d="M53.1322 100.013C52.6748 99.9412 52.2638 100.195 52.0168 100.484C51.7698 100.773 51.5983 101.132 51.4491 101.583C51.1909 102.365 50.2428 105.266 46.824 108.133C43.4052 111 37.5096 115.742 27.2915 116C21.0782 116.072 17.302 112.454 14.8244 107.631C14.2061 106.428 13.2327 104.185 13.2327 105.612V107.819L13.2012 119.239L13.2643 119.39C13.2643 119.39 13.8209 120.606 13.2327 122.245C12.6446 123.884 9.88875 126.275 4.70528 127.806L4.07159 127.991L4.19202 128.648C4.47953 130.238 5.62557 131.868 7.31745 133.536C9.00932 135.205 11.2746 136.893 13.9124 138.419C19.188 141.472 25.945 143.884 32.5101 143.996C39.0752 144.109 45.4985 141.851 49.7487 135.596C53.9988 129.341 56.0716 117.403 54.3737 101.855H54.3708C54.3169 101.428 54.2212 101.064 54.0498 100.745C53.8783 100.425 53.5896 100.096 53.1322 100.024V100.013Z" fill="black"/>
<path fill-rule="evenodd" clip-rule="evenodd" d="M53.1322 99.0127C52.6748 98.9412 52.2638 99.1951 52.0168 99.4842C51.7698 99.7734 51.5983 100.132 51.4491 100.583C51.1909 101.365 50.2428 104.266 46.824 107.133C43.4052 110 37.5096 114.742 27.2915 115C21.0782 115.072 17.302 111.454 14.8244 106.631C14.2061 105.428 13.2327 103.185 13.2327 104.612V106.819L13.2012 118.239L13.2643 118.39C13.2643 118.39 13.8209 119.606 13.2327 121.245C12.6446 122.884 9.88875 125.275 4.70528 126.806L4.07159 126.991L4.19202 127.648C4.47953 129.238 5.62557 130.868 7.31745 132.536C9.00932 134.205 11.2746 135.893 13.9124 137.419C19.188 140.472 25.945 142.884 32.5101 142.996C39.0752 143.109 45.4985 140.851 49.7487 134.596C53.9988 128.341 56.0716 116.403 54.3737 100.855H54.3708C54.3169 100.428 54.2212 100.064 54.0498 99.7445C53.8783 99.4252 53.5896 99.0955 53.1322 99.0243V99.0127Z" fill="#645B44"/>
<path opacity="0.1" fill-rule="evenodd" clip-rule="evenodd" d="M53.1317 99.0122C52.6743 98.9406 52.2634 99.1957 52.0164 99.4848C51.7693 99.7741 51.5991 100.131 51.4498 100.582C51.1916 101.364 50.2423 104.266 46.8235 107.133C43.4047 110 37.5106 114.742 27.2925 115C21.0792 115.072 17.3028 111.454 14.8252 106.631C14.2069 105.428 13.2327 103.185 13.2327 104.612V105.612C13.2327 104.185 14.2069 106.428 14.8252 107.631C17.3028 112.454 21.0792 116.072 27.2925 116C37.5106 115.742 43.4047 111 46.8235 108.133C50.2423 105.266 51.1916 102.364 51.4498 101.582C51.5991 101.131 51.7693 100.774 52.0164 100.485C52.2634 100.196 52.6743 99.9406 53.1317 100.012V100.024C53.5891 100.095 53.8788 100.425 54.0502 100.745C54.2216 101.064 54.3164 101.429 54.3703 101.856H54.3743C54.7699 105.479 54.9524 108.896 54.9588 112.1C54.994 108.613 54.8111 104.857 54.3743 100.856H54.3703C54.3164 100.429 54.2216 100.064 54.0502 99.7446C53.8788 99.4253 53.5891 99.0951 53.1317 99.0239V99.0122ZM13.2327 106.819L13.2009 118.239L13.2029 118.245L13.2327 107.819V106.819ZM13.4693 120.209C13.4338 120.528 13.366 120.873 13.2327 121.245C12.6446 122.884 9.88926 125.275 4.7058 126.805L4.07159 126.991L4.19287 127.647C4.21006 127.742 4.23918 127.839 4.26245 127.934L4.7058 127.805C9.88926 126.275 12.6446 123.884 13.2327 122.245C13.5258 121.428 13.5342 120.718 13.4693 120.209Z" fill="white"/>
<path opacity="0.2" fill-rule="evenodd" clip-rule="evenodd" d="M19.3388 115C17.5761 115 15.8045 115.573 14.4557 116.751C13.107 117.929 12.2148 119.724 12.2148 122.002C12.2148 124.28 13.107 126.072 14.4557 127.25C15.8045 128.428 17.5761 129 19.3388 129C21.1015 129 22.8731 128.428 24.2219 127.25C25.5707 126.072 26.4655 124.28 26.4655 122.002C26.4655 119.724 25.5707 117.929 24.2219 116.751C22.8731 115.573 21.1015 115 19.3388 115Z" fill="black"/>
<path opacity="0.2" fill-rule="evenodd" clip-rule="evenodd" d="M31.5538 115C29.791 115 28.0194 115.573 26.6707 116.751C25.3219 117.929 24.4297 119.724 24.4297 122.002C24.4297 124.28 25.3219 126.072 26.6707 127.25C28.0194 128.428 29.791 129 31.5538 129C33.3165 129 35.0881 128.428 36.4369 127.25C37.7856 126.072 38.6804 124.28 38.6804 122.002C38.6804 119.724 37.7856 117.929 36.4369 116.751C35.0881 115.573 33.3165 115 31.5538 115Z" fill="black"/>
<path fill-rule="evenodd" clip-rule="evenodd" d="M19.3388 114C17.5761 114 15.8045 114.573 14.4557 115.751C13.107 116.929 12.2148 118.724 12.2148 121.002C12.2148 123.28 13.107 125.072 14.4557 126.25C15.8045 127.428 17.5761 128 19.3388 128C21.1015 128 22.8731 127.428 24.2219 126.25C25.5707 125.072 26.4655 123.28 26.4655 121.002C26.4655 118.724 25.5707 116.929 24.2219 115.751C22.8731 114.573 21.1015 114 19.3388 114Z" fill="white"/>
<path fill-rule="evenodd" clip-rule="evenodd" d="M20.3581 119C19.6099 119 18.8534 119.243 18.2707 119.752C17.6879 120.261 17.3044 121.045 17.3044 122C17.3044 122.956 17.6879 123.74 18.2707 124.249C18.8534 124.757 19.6099 125 20.3581 125C21.1064 125 21.8629 124.757 22.4456 124.249C23.0284 123.74 23.4118 122.956 23.4118 122C23.4118 121.045 23.0284 120.261 22.4456 119.752C21.8629 119.243 21.1064 119 20.3581 119Z" fill="#3F3F3F"/>
<path opacity="0.3" fill-rule="evenodd" clip-rule="evenodd" d="M18.3224 134.39C21.1146 134.39 23.6601 134.53 25.9691 134.39C29.8047 134.153 33.1762 133.736 34.8808 132.425C34.1597 131.497 33.9586 130.479 33.9586 130.479C33.9586 130.479 36.1275 131.365 37.2541 132.814C38.3775 134.259 36.8587 135.149 36.5647 136.998C35.9102 135.374 35.5011 134.765 35.3357 134.12C34.1461 135.758 32.0972 136.933 29.3414 136.998C26.408 137.065 22.6737 135.924 18.3224 134.393L18.3224 134.39Z" fill="black"/>
<path opacity="0.1" fill-rule="evenodd" clip-rule="evenodd" d="M6.07209 118C5.71075 118 5.35641 118.022 5.01197 118.074C4.09347 118.213 3.24306 118.546 2.50988 119.05C-0.422834 121.069 -1.19519 125.644 2.42723 130.434C6.04966 135.225 10.8423 135.969 13.775 133.95C16.7077 131.931 17.4829 127.356 13.8605 122.566C11.4833 119.422 8.60143 118.022 6.07209 118.001L6.07209 118Z" fill="black"/>
<path fill-rule="evenodd" clip-rule="evenodd" d="M6.07209 117C5.71075 117 5.35641 117.022 5.01197 117.074C4.09347 117.213 3.24306 117.546 2.50988 118.05C-0.422834 120.069 -1.19519 124.644 2.42723 129.434C6.04966 134.225 10.8423 134.969 13.775 132.95C16.7077 130.931 17.4829 126.356 13.8605 121.566C11.4833 118.422 8.60143 117.022 6.07209 117.001L6.07209 117Z" fill="#3F3F3F"/>
<path fill-rule="evenodd" clip-rule="evenodd" d="M31.5538 114C29.791 114 28.0194 114.573 26.6707 115.751C25.3219 116.929 24.4297 118.724 24.4297 121.002C24.4297 123.28 25.3219 125.072 26.6707 126.25C28.0194 127.428 29.791 128 31.5538 128C33.3165 128 35.0881 127.428 36.4369 126.25C37.7856 125.072 38.6804 123.28 38.6804 121.002C38.6804 118.724 37.7856 116.929 36.4369 115.751C35.0881 114.573 33.3165 114 31.5538 114Z" fill="white"/>
<path fill-rule="evenodd" clip-rule="evenodd" d="M32.5729 119C31.8247 119 31.0682 119.243 30.4854 119.752C29.9027 120.261 29.5192 121.045 29.5192 122C29.5192 122.956 29.9027 123.74 30.4854 124.249C31.0682 124.757 31.8247 125 32.5729 125C33.3212 125 34.0777 124.757 34.6604 124.249C35.2432 123.74 35.6266 122.956 35.6266 122C35.6266 121.045 35.2432 120.261 34.6604 119.752C34.0777 119.243 33.3212 119 32.5729 119Z" fill="#3F3F3F"/>
<path opacity="0.2" d="M35.8672 134.36L34.5212 135.086C34.5212 135.086 40.1429 139.977 45.1953 142.387C45.1327 142.747 45.1084 143.112 45.1416 143.547L46.0721 143.391C46.0721 143.391 49.5456 144.38 52.0125 145.122C51.6356 146.619 52.4106 148.487 54.4718 149.229C57.893 150.46 61.0742 152 61.0742 152C59.4422 146.791 58.8639 142.656 54.599 143.024C54.4778 143.034 54.3702 143.062 54.257 143.083L47.7977 139.831V138.958L47.1556 139.372C47.0383 139.435 46.9283 139.513 46.8196 139.592C42.1438 136.818 35.8672 134.36 35.8672 134.36V134.36Z" fill="black"/>
<path d="M47.7544 142.392L48.9844 139.986C44.4087 136.697 35.8665 133.36 35.8665 133.36L34.5205 134.087C34.5205 134.087 42.2763 140.845 47.7544 142.392Z" fill="#FF9A0C"/>
<path d="M47.7972 137.957L47.1559 138.371C46.5618 138.691 46.0798 139.234 45.6889 139.862C45.2416 140.894 45.0649 141.54 45.1418 142.548L46.0712 142.392C46.0712 142.392 50.9239 143.759 53.2211 144.479L53.4898 143.97L54.4358 142.171L47.7972 138.83V137.957Z" fill="#8A8A8A"/>
<path d="M61.0742 151C59.4423 145.791 58.8635 141.655 54.5986 142.023C51.1617 142.32 50.9211 146.951 54.4726 148.228C57.8938 149.459 61.0742 151 61.0742 151H61.0742Z" fill="#3F3F3F"/>
<path opacity="0.1" fill-rule="evenodd" clip-rule="evenodd" d="M6.07061 117C5.70927 117 5.35539 117.022 5.01095 117.075C4.09246 117.214 3.24113 117.545 2.50795 118.049C0.829856 119.204 -0.134312 121.2 0.0208458 123.59C0.156622 121.647 1.06994 120.039 2.50795 119.049C3.24113 118.545 4.09246 118.214 5.01095 118.075C5.35539 118.022 5.70927 118 6.07061 118C8.59994 118.022 11.4827 119.421 13.8599 122.565C15.4091 124.614 16.1477 126.622 16.2635 128.409C16.4049 126.389 15.7057 124.006 13.8599 121.565C11.4827 118.421 8.59994 117.022 6.07061 117Z" fill="white"/>
<path opacity="0.2" d="M61.0335 221.828C60.8141 229.633 57.5058 237.047 51.8114 242.494C46.1169 247.941 38.4851 250.993 30.5371 251C22.6477 250.996 15.0662 247.992 9.38123 242.618C3.69622 237.244 0.348927 229.917 0.0407161 222.172C0.023263 222.448 0.0096897 222.724 0 223C0 230.956 3.21729 238.587 8.94411 244.213C14.6709 249.839 22.4382 253 30.5371 253C38.636 253 46.4033 249.839 52.1301 244.213C57.8569 238.587 61.0742 230.956 61.0742 223C61.0684 222.609 61.0548 222.218 61.0335 221.828Z" fill="black"/>
<path d="M61.0742 222C61.0742 229.956 57.8569 237.587 52.1301 243.213C46.4033 248.839 38.636 252 30.5371 252C22.4382 252 14.6709 248.839 8.94411 243.213C3.21729 237.587 0 229.956 0 222C0 214.044 3.21729 206.413 8.94411 200.787C14.6709 195.161 22.4382 192 30.5371 192C38.636 192 46.4033 195.161 52.1301 200.787C57.8569 206.413 61.0742 214.044 61.0742 222Z" fill="#4F4F4F"/>
<g opacity="0.2">
<path opacity="0.2" d="M26.1803 236.08C28.1164 235.496 30.4395 233.895 31.5284 232.392L31.8879 231.896L31.438 230.559C29.7946 225.674 32.7784 220.749 37.8943 219.901C41.6128 219.285 45.514 221.519 46.8591 225.036C47.1793 225.873 47.1891 225.881 47.0849 225.239C46.7768 223.338 45.8188 221.585 44.2614 220.073C42.6362 218.495 40.7488 217.6 38.3909 217.29C37.6672 217.195 37.5921 217.222 37.3199 217.675C36.9002 218.372 35.6794 219.54 34.7772 220.106C32.3472 221.632 28.6013 221.632 26.1655 220.108C23.4137 218.386 21.8573 215.088 22.3624 212.05C22.6381 210.391 23.3815 208.92 24.5664 207.687C25.425 206.794 25.4831 206.695 24.9869 206.974C24.1514 207.444 22.1958 209.532 21.6406 210.546C21.0008 211.715 20.4813 213.784 20.4844 215.151C20.4865 216.327 20.8004 217.888 21.2604 219.017C21.5285 219.676 21.5626 219.696 22.5558 219.807C23.1168 219.869 24.0034 220.065 24.526 220.241C29.1471 221.803 31.3274 227.039 29.164 231.379C27.6894 234.337 24.2756 236.241 21.0846 235.886C19.7859 235.742 19.9236 235.914 21.3636 236.236C22.6397 236.521 24.9666 236.446 26.1803 236.08V236.08Z" fill="black"/>
<path opacity="0.2" d="M30.5372 203C19.3066 203 10.1791 211.967 10.1791 223C10.1791 234.033 19.3066 243 30.5372 243C41.7677 243 50.8953 234.033 50.8953 223C50.8953 211.967 41.7677 203 30.5372 203ZM30.5372 205.148C40.5865 205.148 48.7084 213.127 48.7084 223C48.7084 232.873 40.5865 240.852 30.5372 240.852C20.4878 240.852 12.3659 232.873 12.3659 223C12.3659 213.127 20.4878 205.148 30.5372 205.148Z" fill="black"/>
</g>
<path opacity="0.1" d="M30.5351 192C22.4365 192.001 14.6698 195.161 8.94342 200.787C3.21702 206.414 -1.7161e-08 214.044 0 222C0.00448246 222.171 0.010447 222.341 0.0178929 222.512C0.148265 214.644 3.4203 207.141 9.12877 201.62C14.8372 196.1 22.525 193.004 30.5351 193H30.5371C38.5462 193.006 46.2325 196.102 51.9397 201.622C57.6469 207.143 60.9181 214.645 61.0484 222.512C61.0579 222.341 61.0658 222.171 61.0723 222C61.0723 214.044 57.8553 206.414 52.1289 200.787C46.4025 195.161 38.6357 192.001 30.5371 192H30.5351Z" fill="white"/>
<path d="M26.1803 235.08C28.1164 234.496 30.4395 232.895 31.5284 231.392L31.8879 230.896L31.438 229.559C29.7946 224.674 32.7784 219.749 37.8943 218.901C41.6128 218.285 45.514 220.519 46.8591 224.036C47.1793 224.873 47.1891 224.881 47.0849 224.239C46.7768 222.338 45.8188 220.585 44.2614 219.073C42.6362 217.495 40.7488 216.6 38.3909 216.29C37.6672 216.195 37.5921 216.222 37.3199 216.675C36.9002 217.372 35.6794 218.54 34.7772 219.106C32.3472 220.632 28.6013 220.632 26.1655 219.108C23.4137 217.386 21.8573 214.088 22.3624 211.05C22.6381 209.391 23.3815 207.92 24.5664 206.687C25.425 205.794 25.4831 205.695 24.9869 205.974C24.1514 206.444 22.1958 208.532 21.6406 209.546C21.0008 210.715 20.4813 212.784 20.4844 214.151C20.4865 215.327 20.8004 216.888 21.2604 218.017C21.5285 218.676 21.5626 218.696 22.5558 218.807C23.1168 218.869 24.0034 219.065 24.526 219.241C29.1471 220.803 31.3274 226.039 29.164 230.379C27.6894 233.337 24.2756 235.241 21.0846 234.886C19.7859 234.742 19.9236 234.914 21.3636 235.236C22.6397 235.521 24.9666 235.446 26.1803 235.08V235.08Z" fill="white"/>
<path d="M30.5372 202C19.3066 202 10.1791 210.967 10.1791 222C10.1791 233.033 19.3066 242 30.5372 242C41.7677 242 50.8953 233.033 50.8953 222C50.8953 210.967 41.7677 202 30.5372 202ZM30.5372 204.148C40.5865 204.148 48.7084 212.127 48.7084 222C48.7084 231.873 40.5865 239.852 30.5372 239.852C20.4878 239.852 12.3659 231.873 12.3659 222C12.3659 212.127 20.4878 204.148 30.5372 204.148Z" fill="white"/>
<path opacity="0.2" d="M112.614 21.0696C105.947 26.1347 102.092 22.4704 102.092 31.327C102.092 46.6104 114.852 59 130.593 59C146.334 59 159.094 46.6104 159.094 31.327C159.094 24.2116 156.328 17.7234 151.784 12.8206C151.885 12.8168 151.358 12.4194 151.087 12.5186C152.987 15.6124 154.081 19.238 154.081 23.1147C154.081 34.4598 147.658 45.6991 136.11 45.6991C128.693 46.0528 118.812 41.3943 117.291 37.0351C116.31 34.2227 116.558 31.064 119.227 29.3155C120.677 28.4112 122.791 27.5184 126.135 27.4136C129.19 25.4397 127.704 25.6642 127.557 25.0666C126.608 24.8117 124.923 24.4593 122.597 22.6609C120.537 21.068 119.58 20.464 113.576 20.4089C112.442 18.2633 112.725 23.6172 112.614 21.0696Z" fill="black"/>
<path d="M139.556 0C140.758 3.14434 145.106 7.19945 150.841 14.415C155.697 20.5258 156.254 27.3438 158.049 33.4739L144.554 44.8848L129.311 29.5113C129.242 19.2911 126.745 8.55365 139.556 0Z" fill="#FFDE3F"/>
<path opacity="0.2" d="M139.556 0C130.356 6.14254 129.058 13.412 129.078 20.8066C129.186 13.7584 130.771 6.86545 139.556 1C140.758 4.14434 145.105 8.19852 150.84 15.4141C155.484 21.2577 156.207 27.7431 157.83 33.6602L158.049 33.4746C156.254 27.3445 155.697 20.5249 150.84 14.4141C145.105 7.19852 140.758 3.14434 139.556 0Z" fill="white"/>
<path d="M111.801 18.3994C113.781 16.4694 117.014 11.9753 120.871 10.7295C119.835 16.1561 121.178 17.8809 121.847 20.6553L115.647 19.0762L111.801 18.3994Z" fill="#FF750E"/>
<path d="M130.593 44C138.464 44 144.844 37.732 144.844 30C144.844 22.268 138.464 16 130.593 16C122.723 16 116.343 22.268 116.343 30C116.343 37.732 122.723 44 130.593 44Z" fill="#8357CD"/>
<path d="M135.108 20.1294C134.905 20.1314 134.703 20.1384 134.5 20.1506C138.628 22.054 141.265 26.1272 141.271 30.6064C141.268 36.7605 136.361 41.9754 130.105 42.2931C131.669 43.0203 133.377 43.2592 135.108 43.2639C141.611 43.264 146.883 38.0852 146.883 31.6968C146.883 25.3083 141.611 20.1293 135.108 20.1294V20.1294Z" fill="#FFBA36"/>
<path d="M112.614 20.0696C105.947 25.1347 102.092 21.4704 102.092 30.327C102.092 45.6104 114.852 58 130.593 58C146.334 58 159.094 45.6104 159.094 30.327C159.094 23.2116 156.328 16.7234 151.784 11.8206C151.885 11.8168 151.358 11.4194 151.087 11.5186C152.987 14.6124 154.081 18.238 154.081 22.1147C154.081 33.4598 147.658 44.6991 136.11 44.6991C128.693 45.0528 118.812 40.3943 117.291 36.0351C116.31 33.2227 116.558 30.064 119.227 28.3155C120.677 27.4112 122.791 26.5184 126.135 26.4136C129.19 24.4397 127.704 24.6642 127.557 24.0666C126.608 23.8117 124.923 23.4593 122.597 21.6609C120.537 20.068 119.58 19.464 113.576 19.4089C112.442 17.2633 112.725 22.6172 112.614 20.0696Z" fill="#F74E66"/>
<path opacity="0.1" d="M112.228 9.52148C105.846 14.3698 102.471 21.8042 102.123 30.1988C102.488 43.0638 114.442 53 129.166 53C144.12 53 156.242 42.7444 156.242 29.6C156.242 26.0575 155.355 22.698 153.776 19.677C153.968 20.7959 154.08 21.9414 154.08 23.1141C154.08 34.4591 144.717 43 133.168 43C125.751 43.3537 120.171 39.9857 118.651 35.6266C117.669 32.8141 117.991 31.6274 120.66 29.8789C122.11 28.9747 124.152 28.3623 127.496 28.2574C130.551 26.2836 130.785 25.5246 130.638 24.9269C129.689 24.672 127.072 23.6848 124.746 21.8863C122.686 20.2934 119.267 17.0831 113.263 17.028C112.129 14.8824 112.339 12.0691 112.228 9.52148Z" fill="black"/>
<path d="M112.228 8.52148C105.846 13.3698 102.471 20.8042 102.123 29.1988C102.488 42.0638 114.442 52 129.166 52C144.12 52 156.242 41.7444 156.242 28.6C156.242 25.0575 155.355 21.698 153.776 18.677C153.968 19.7959 154.08 20.9414 154.08 22.1141C154.08 33.4591 144.717 42 133.168 42C125.751 42.3537 120.171 38.9857 118.651 34.6266C117.669 31.8141 117.991 30.6274 120.66 28.8789C122.11 27.9747 124.152 27.3623 127.496 27.2574C130.551 25.2836 130.785 24.5246 130.638 23.9269C129.689 23.672 127.072 22.6848 124.746 20.8863C122.686 19.2934 119.267 16.0831 113.263 16.028C112.129 13.8824 112.339 11.0691 112.228 8.52148Z" fill="#FF7F1F"/>
<path d="M114.828 22.0077C112.888 21.9664 111.254 22.6225 109.957 23.4921C109.725 23.7203 111.805 27.8497 116.14 27.8945C115.739 34.764 120.972 39.7872 124.486 40.7812L126.029 41.0586C122.293 39.7997 119.629 37.424 118.653 34.625C117.672 31.8125 117.991 30.6274 120.661 28.8788C122.111 27.9746 124.151 27.3626 127.496 27.2577C129.023 26.2708 129.849 25.5859 130.271 25.0741C130.482 24.8185 130.592 24.6078 130.641 24.4218C130.69 24.2355 130.678 24.0751 130.641 23.9257C126.523 27.9999 120.676 23.5168 116.144 22.1522C115.717 22.0628 115.275 22.0172 114.828 22.0077V22.0077Z" fill="#FFBA36"/>
<path opacity="0.2" d="M112.227 8.52148C105.845 13.3699 102.471 20.8046 102.124 29.1993C102.129 29.377 102.144 29.552 102.153 29.7286C102.606 21.528 105.965 14.2786 112.227 9.52149C112.338 12.0691 112.129 14.8818 113.263 17.0274C119.267 17.0825 122.686 20.2938 124.746 21.8868C126.944 23.5864 129.355 24.5383 130.42 24.8555C130.677 24.4665 130.701 24.18 130.639 23.9278C129.69 23.6728 127.072 22.6852 124.746 20.8868C122.686 19.2938 119.267 16.0825 113.263 16.0274C112.129 13.8818 112.338 11.0691 112.227 8.52148ZM153.776 18.6778C153.854 19.1303 153.908 19.5895 153.957 20.0508C155.349 22.8371 156.154 25.8986 156.228 29.1212C156.232 28.9473 156.241 28.7746 156.241 28.5997C156.241 25.0572 155.355 21.6989 153.776 18.6778ZM154.064 22.7481C153.722 33.7749 144.499 42.0001 133.168 42.0001C125.75 42.3538 120.171 38.9862 118.651 34.627C118.414 33.9495 118.258 33.3691 118.187 32.8497C118.082 33.6054 118.25 34.4775 118.651 35.627C120.171 39.9862 125.75 43.3538 133.168 43.0001C144.716 43.0001 154.08 34.4584 154.08 23.1133C154.08 22.9901 154.067 22.8707 154.064 22.7481Z" fill="white"/>
<path opacity="0.2" fill-rule="evenodd" clip-rule="evenodd" d="M130.59 98C128.907 98.0007 127.271 98.6213 125.981 99.9316L103.035 123.213C101.77 124.498 101.1 126.192 101.074 127.869C101.074 127.895 101.074 127.957 101.074 127.984C101.074 132.974 113.907 128.128 115.13 134.229C115.792 137.53 108.206 136.018 108.206 139.34C108.206 143.236 120.527 140.058 123.184 143.768C125.218 146.607 118.014 146.731 119.627 149.449C121.012 151.781 125.963 150.288 126.788 153.422C127.731 157.002 133.802 156.602 137.232 153.764C139.334 152.024 134.439 150.934 136.349 148.992C138.26 147.051 147.359 147.415 146.85 143.201C146.514 140.412 142.992 140.106 142.938 136.955C142.748 134.287 146.293 135.065 156.077 132.41C159.989 130.604 160.128 129.645 160.113 127.982C160.112 127.949 160.113 127.904 160.113 127.869C160.091 126.192 159.301 124.498 158.037 123.213L135.202 99.9316C133.912 98.6212 132.275 98.0007 130.594 98H130.59ZM157.485 138.004C157.031 137.989 156.574 138.028 156.252 138.125C155.644 138.314 152.764 138.422 153.001 140.781C155.61 141.96 159.587 142.898 160.061 140.539C160.417 138.77 158.844 138.058 157.485 138.004ZM111.226 145.022C110.971 145.054 110.796 145.167 110.548 145.273C108.561 146.122 107.231 147.909 109.086 148.689C110.942 149.47 112.183 148.645 113.81 147.678C115.437 146.71 115.393 146.534 115.275 146.16C115.05 146.211 113.571 145.175 112.013 145.022C111.753 144.997 111.48 144.989 111.226 145.022Z" fill="black"/>
<path fill-rule="evenodd" clip-rule="evenodd" d="M130.59 97C128.907 97.0007 127.271 97.6213 125.981 98.9316L103.035 122.213C101.77 123.498 101.1 125.192 101.074 126.869C101.074 126.895 101.074 126.957 101.074 126.984C101.074 131.974 113.907 127.128 115.13 133.229C115.792 136.53 108.206 135.018 108.206 138.34C108.206 142.236 120.527 139.058 123.184 142.768C125.218 145.607 118.014 145.731 119.627 148.449C121.012 150.781 125.963 149.288 126.788 152.422C127.731 156.002 133.802 155.602 137.232 152.764C139.334 151.024 134.439 149.934 136.349 147.992C138.26 146.051 147.359 146.415 146.85 142.201C146.514 139.412 142.992 139.106 142.938 135.955C142.748 133.287 146.293 134.065 156.077 131.41C159.989 129.604 160.128 128.645 160.113 126.982C160.112 126.949 160.113 126.904 160.113 126.869C160.091 125.192 159.301 123.498 158.037 122.213L135.202 98.9316C133.912 97.6212 132.275 97.0007 130.594 97H130.59ZM157.485 137.004C157.031 136.989 156.574 137.028 156.252 137.125C155.644 137.314 152.764 137.422 153.001 139.781C155.61 140.96 159.587 141.898 160.061 139.539C160.417 137.77 158.844 137.058 157.485 137.004ZM111.226 144.022C110.971 144.054 110.796 144.167 110.548 144.273C108.561 145.122 107.231 146.909 109.086 147.689C110.942 148.47 112.183 147.645 113.81 146.678C115.437 145.71 115.393 145.534 115.275 145.16C115.05 145.211 113.571 144.175 112.013 144.022C111.753 143.997 111.48 143.989 111.226 144.022Z" fill="#4F4F4F"/>
<path opacity="0.2" fill-rule="evenodd" clip-rule="evenodd" d="M130.699 105.005C132.431 105.02 137.175 110.787 141.408 115.107C142.598 116.676 140.947 118.285 140.947 118.285L132.081 113.518L128.167 118.739L124.713 113.632L122.639 121.577L116.537 117.945L118.15 115.901L127.705 106.254C128.438 105.52 129 104.993 130.699 105.006L130.699 105.005Z" fill="black"/>
<path fill-rule="evenodd" clip-rule="evenodd" d="M130.699 104.005C132.431 104.02 137.175 109.787 141.408 114.107C142.598 115.676 140.947 117.285 140.947 117.285L132.081 112.518L128.167 117.739L124.713 112.632L122.639 120.577L116.537 116.945L118.15 114.901L127.705 105.254C128.438 104.52 129 103.993 130.699 104.006L130.699 104.005Z" fill="white"/>
<path opacity="0.1" fill-rule="evenodd" clip-rule="evenodd" d="M130.59 97C128.907 97.0007 127.271 97.6213 125.981 98.9316L103.035 122.213C101.77 123.498 101.1 125.192 101.074 126.869C101.074 126.895 101.074 126.957 101.074 126.984C101.074 127.117 101.088 127.24 101.106 127.359C101.246 125.853 101.898 124.368 103.035 123.213L125.981 99.9316C127.271 98.6213 128.907 98.0007 130.59 98H130.594C132.275 98.0007 133.912 98.6212 135.202 99.9316L158.037 123.213C159.244 124.44 160.01 126.039 160.097 127.641C160.111 127.431 160.115 127.215 160.113 126.982C160.113 126.949 160.113 126.904 160.113 126.869C160.091 125.192 159.302 123.498 158.037 122.213L135.202 98.9316C133.912 97.6212 132.275 97.0007 130.594 97H130.59ZM115.082 134.057C114.36 136.269 108.206 135.343 108.206 138.34C108.206 138.512 108.239 138.666 108.285 138.812C109.064 136.181 115.754 137.339 115.13 134.229C115.118 134.168 115.097 134.115 115.082 134.057ZM142.975 136.379C142.941 136.553 142.922 136.739 142.938 136.955C142.991 140.035 146.35 140.404 146.814 143.025C146.868 142.771 146.886 142.499 146.85 142.201C146.53 139.544 143.326 139.134 142.975 136.379ZM157.485 137.004C157.031 136.989 156.574 137.028 156.252 137.125C155.644 137.314 152.764 137.422 153.001 139.781C153.035 139.797 153.074 139.811 153.109 139.826C153.626 138.392 155.74 138.284 156.252 138.125C156.574 138.028 157.031 137.989 157.485 138.004C158.569 138.047 159.772 138.519 160.041 139.602C160.046 139.579 160.057 139.562 160.061 139.539C160.417 137.77 158.844 137.058 157.485 137.004ZM111.226 144.021C110.971 144.054 110.796 144.167 110.548 144.273C108.959 144.952 107.796 146.229 108.341 147.113C108.653 146.429 109.5 145.721 110.548 145.273C110.796 145.167 110.971 145.054 111.226 145.021C111.48 144.989 111.753 144.997 112.013 145.021C113.155 145.134 114.246 145.717 114.84 146.002C115.37 145.599 115.357 145.42 115.275 145.16C115.05 145.211 113.571 144.175 112.013 144.021C111.753 143.997 111.48 143.989 111.226 144.021ZM123.423 144.197C122.686 145.694 118.721 146.242 119.518 148.191C120.281 146.701 124.261 146.157 123.423 144.197ZM136.035 149.424C135.444 150.561 137.079 151.413 137.606 152.342C138.267 151.286 136.536 150.445 136.035 149.424Z" fill="white"/>
<path opacity="0.2" d="M108.2 248V250C108.2 251.662 109.562 253 111.253 253H149.934C151.625 253 152.987 251.662 152.987 250V248C152.987 249.662 151.625 251 149.934 251H111.253C109.562 251 108.2 249.662 108.2 248Z" fill="black"/>
<path d="M152.987 249V199C152.987 197.338 151.625 196 149.934 196H111.253C109.562 196 108.2 197.338 108.2 199V249C108.2 250.662 109.562 252 111.253 252H149.934C151.625 252 152.987 250.662 152.987 249Z" fill="#4F4F4F"/>
<path opacity="0.1" d="M112.271 201V249H148.916V217.828L131.786 201H112.271ZM137.544 201L148.916 212.172V201H137.544Z" fill="black"/>
<path d="M112.271 200V248H148.916V216.828L131.786 200H112.271ZM137.544 200L148.916 211.172V200H137.544Z" fill="#F5F5F5"/>
<path opacity="0.1" d="M111.253 196C109.562 196 108.2 197.338 108.2 199V200C108.2 198.338 109.562 197 111.253 197H149.934C151.625 197 152.987 198.338 152.987 200V199C152.987 197.338 151.625 196 149.934 196H111.253Z" fill="white"/>
<path fill-rule="evenodd" clip-rule="evenodd" d="M211.977 35C210.827 35.0003 209.789 35.6789 209.347 36.7207L202.222 53.1271C201.44 54.9692 202.819 56.9994 204.852 57H256.15C258.184 56.9994 259.563 54.9691 258.78 53.1271L251.656 36.7207C251.213 35.6789 250.176 35.0003 249.026 35H211.977Z" fill="#FF8800"/>
<path opacity="0.2" fill-rule="evenodd" clip-rule="evenodd" d="M211.973 35C210.823 35.0003 209.787 35.6794 209.344 36.7208L202.219 53.1179C201.995 53.644 201.952 54.1851 202.048 54.6902C202.084 54.4991 202.138 54.3074 202.219 54.1179L209.344 37.7208C209.787 36.6794 210.823 36.0003 211.973 36H249.028C250.179 36.0003 251.214 36.6794 251.657 37.7208L258.782 54.1179C258.864 54.3106 258.918 54.5057 258.953 54.7C259.052 54.1921 259.007 53.6474 258.782 53.1179L251.657 36.7208C251.214 35.6794 250.179 35.0003 249.028 35H211.973Z" fill="white"/>
<path fill-rule="evenodd" clip-rule="evenodd" d="M230.504 1.00088C229.21 0.986882 227.89 1.20262 226.586 1.71731C225.778 2.03661 225.163 2.70137 224.916 3.52203L222.294 12.2285C226.44 20.9894 234.776 15.0992 238.703 12.2285L236.082 3.52203C235.82 2.65339 235.147 1.96268 234.275 1.66809C233.068 1.25957 231.799 1.0151 230.504 1.00088H230.504ZM218.923 23.4291L215.76 33.9302C216.784 42.8434 232.719 40.9811 245.132 33.5727L242.078 23.4303C234.241 26.4928 231.062 17.5593 218.923 23.4303V23.4291Z" fill="#FF8800"/>
<path opacity="0.2" fill-rule="evenodd" clip-rule="evenodd" d="M202.045 54.72C201.74 56.3786 203.01 58 204.828 58H256.174C257.993 57.9994 259.262 56.3797 258.957 54.72C258.717 55.9739 257.62 57.0017 256.174 57.0022H204.828C203.382 57.0022 202.286 55.9735 202.045 54.72Z" fill="black"/>
<path fill-rule="evenodd" clip-rule="evenodd" d="M222.295 12.4001L215.76 33.9799L218.924 23.5382C227.652 27.3671 234.242 26.584 242.08 23.5382L245.135 33.6256C232.73 40.9681 218.831 35.7382 215.761 33.9797L213.519 41.3801C213.171 42.5294 213.615 43.7674 214.621 44.4533C219.013 47.446 224.718 48.6513 230.396 48.5982C236.075 48.5451 241.771 47.2262 246.244 44.543C247.342 43.8841 247.851 42.5872 247.486 41.3801L238.707 12.4001C234.777 15.1849 226.225 15.1849 222.295 12.4001H222.295Z" fill="white"/>
<path opacity="0.2" d="M230.266 1C227.241 1 225.23 1.9031 225.23 3.0957C225.23 3.25641 225.282 3.42051 225.377 3.58398C225.872 2.65635 227.695 2 230.266 2C232.819 2 235.124 2.82095 235.789 3.79297C235.92 3.63355 235.999 3.48155 235.999 3.3418C235.999 2.14923 233.291 1 230.266 1Z" fill="white"/>
<path opacity="0.2" d="M227.721 101.007C226.417 100.933 225.104 101.477 224.25 102.579C222.883 104.342 223.227 106.842 225.021 108.185L228.859 111.056H208.144C205.889 111.056 204.073 112.84 204.073 115.056C204.073 117.272 205.889 119.056 208.144 119.056H217.405L201.609 130.87C199.814 132.212 199.469 134.712 200.836 136.475C202.202 138.238 204.747 138.577 206.541 137.235L214.283 131.447C214.269 131.65 214.259 131.853 214.251 132.056C214.257 137.356 216.302 142.457 219.976 146.338C223.651 150.218 228.682 152.59 234.063 152.978C234.513 153.015 234.967 153.038 235.424 153.046C235.492 153.05 235.559 153.053 235.627 153.056C235.654 153.056 235.681 153.055 235.708 153.054C235.747 153.055 235.785 153.056 235.824 153.056C247.523 153.056 257.005 143.744 257.003 132.259C257.003 132.214 257 132.168 256.999 132.123C257.001 132.101 257.002 132.079 257.003 132.057C257 131.901 256.994 131.745 256.987 131.59C256.982 131.438 256.978 131.286 256.969 131.135C256.808 127.516 255.697 124.001 253.745 120.929C251.792 117.857 249.064 115.334 245.825 113.604C240.66 109.608 235.198 105.746 229.956 101.823C229.283 101.319 228.504 101.052 227.721 101.008L227.721 101.007Z" fill="black"/>
<path d="M227.721 100.007C226.418 99.933 225.105 100.477 224.25 101.579C222.883 103.342 223.227 105.842 225.021 107.185L228.859 110.056H208.145C205.889 110.056 204.073 111.84 204.073 114.056C204.073 116.272 205.889 118.056 208.145 118.056H217.405L201.61 129.87C199.815 131.213 199.47 133.713 200.836 135.476C202.203 137.239 204.747 137.578 206.542 136.236L214.284 130.447C214.27 130.65 214.26 130.853 214.252 131.056C214.258 136.355 216.303 141.457 219.977 145.337C223.651 149.218 228.683 151.59 234.063 151.978C234.513 152.014 234.967 152.038 235.425 152.046C235.493 152.049 235.56 152.053 235.628 152.056C235.655 152.055 235.682 152.054 235.709 152.054C235.748 152.054 235.786 152.056 235.824 152.056C247.523 152.056 257.006 142.744 257.004 131.259C257.004 131.213 257 131.168 257 131.122C257.001 131.1 257.003 131.078 257.004 131.056C257 130.9 256.995 130.744 256.988 130.589C256.983 130.437 256.979 130.285 256.97 130.134C256.809 126.515 255.698 123 253.745 119.928C251.792 116.856 249.064 114.333 245.825 112.603C240.661 108.607 235.198 104.745 229.956 100.822C229.283 100.318 228.504 100.051 227.721 100.007Z" fill="#F4B43F"/>
<path opacity="0.2" d="M235.633 120.049C238.873 120.049 241.981 121.314 244.272 123.564C246.563 125.815 247.851 128.868 247.851 132.052C247.851 135.235 246.564 138.288 244.273 140.539C241.981 142.791 238.874 144.055 235.633 144.056C232.393 144.056 229.285 142.791 226.993 140.54C224.702 138.289 223.414 135.235 223.414 132.052C223.415 128.868 224.702 125.815 226.993 123.564C229.285 121.313 232.393 120.049 235.633 120.049Z" fill="black"/>
<path d="M235.639 119.056C238.879 119.056 241.986 120.32 244.276 122.57C246.567 124.821 247.854 127.873 247.854 131.056C247.854 134.238 246.567 137.291 244.276 139.541C241.986 141.791 238.879 143.056 235.639 143.056C232.4 143.056 229.293 141.791 227.002 139.541C224.711 137.291 223.424 134.238 223.424 131.056C223.424 127.873 224.711 124.821 227.002 122.57C229.293 120.32 232.4 119.056 235.639 119.056Z" fill="white"/>
<path d="M235.633 137.052C239.007 137.052 241.743 134.364 241.743 131.05C241.743 127.735 239.007 125.048 235.633 125.048C232.259 125.048 229.524 127.735 229.524 131.05C229.524 134.364 232.259 137.052 235.633 137.052Z" fill="#408EF4"/>
<path opacity="0.2" d="M216.068 119.056L201.608 129.87C200.423 130.756 199.886 132.145 200.04 133.495C200.184 132.489 200.717 131.536 201.608 130.87L217.404 119.056H216.068ZM208.143 110.056C205.888 110.056 204.072 111.84 204.072 114.056C204.072 114.227 204.1 114.39 204.121 114.556C204.373 112.58 206.062 111.056 208.143 111.056H228.858L227.522 110.056H208.143ZM227.72 100.007C226.416 99.9328 225.103 100.477 224.248 101.579C223.561 102.466 223.308 103.539 223.453 104.557C223.533 103.863 223.784 103.178 224.248 102.579C225.103 101.477 226.416 100.933 227.72 101.007C228.502 101.051 229.281 101.318 229.954 101.821C235.197 105.744 240.658 109.607 245.823 113.602C249.062 115.332 251.79 117.855 253.743 120.927C255.696 123.999 256.807 127.515 256.968 131.133C256.977 131.284 256.981 131.436 256.986 131.588C256.988 131.629 256.989 131.669 256.99 131.709C256.993 131.559 257.002 131.409 257.002 131.258C257.002 131.212 256.998 131.167 256.998 131.121C257 131.1 257.001 131.078 257.002 131.056C256.999 130.901 256.993 130.745 256.986 130.589C256.981 130.438 256.977 130.286 256.968 130.134C256.807 126.516 255.696 123 253.743 119.929C251.791 116.857 249.063 114.333 245.824 112.603C240.659 108.607 235.197 104.745 229.955 100.822C229.282 100.318 228.502 100.052 227.72 100.007L227.72 100.007Z" fill="white"/>
<path opacity="0.2" fill-rule="evenodd" clip-rule="evenodd" d="M230.537 194C226.179 194.003 221.889 195.145 218.048 197.325C214.207 199.504 210.935 202.653 208.521 206.492C207.759 206.169 206.938 206.001 206.107 206C204.488 206 202.934 206.632 201.789 207.757C200.643 208.883 200 210.409 200 212C200.001 213.299 200.432 214.563 201.227 215.602C202.022 216.64 203.139 217.397 204.41 217.758C204.195 219.161 204.082 220.579 204.072 222C204.072 229.426 206.86 236.548 211.823 241.799C216.786 247.05 223.518 250 230.537 250C231.338 249.993 232.138 249.947 232.935 249.863L232.895 249.895C245.503 249.242 255.262 247.148 259.038 246C253.776 244.33 253.071 238.444 254.358 234.117C256.087 230.339 256.991 226.198 257.003 222C256.996 220.579 256.887 219.161 256.677 217.758C257.945 217.394 259.059 216.637 259.852 215.599C260.645 214.561 261.074 213.298 261.074 212C261.074 210.409 260.431 208.883 259.285 207.757C258.14 206.632 256.587 206 254.967 206C254.136 206.002 253.315 206.171 252.553 206.496C250.14 202.656 246.867 199.506 243.027 197.326C239.186 195.146 234.896 194.004 230.537 194Z" fill="black"/>
<path d="M230.537 249C245.154 249 257.003 236.464 257.003 221C257.003 205.536 245.154 193 230.537 193C215.921 193 204.072 205.536 204.072 221C204.072 236.464 215.921 249 230.537 249Z" fill="#E4E4E4"/>
<path d="M254.967 217C258.34 217 261.074 214.314 261.074 211C261.074 207.686 258.34 205 254.967 205C251.594 205 248.859 207.686 248.859 211C248.859 214.314 251.594 217 254.967 217Z" fill="#E4E4E4"/>
<path d="M206.107 217C209.48 217 212.215 214.314 212.215 211C212.215 207.686 209.48 205 206.107 205C202.734 205 200 207.686 200 211C200 214.314 202.734 217 206.107 217Z" fill="#E4E4E4"/>
<path d="M232.897 248.893C245.505 248.24 255.262 246.148 259.039 245C252.765 243.009 252.931 235 255.28 230.821L232.897 248.893Z" fill="#E4E4E4"/>
<path opacity="0.1" d="M218.963 221.931C222.246 222.511 225.533 219.431 226.303 215.051C227.074 210.671 225.037 206.65 221.754 206.07C218.471 205.49 215.184 208.57 214.413 212.95C213.643 217.33 215.68 221.351 218.963 221.931Z" fill="black"/>
<path d="M218.963 220.932C222.246 221.512 225.533 218.431 226.304 214.052C227.074 209.672 225.037 205.651 221.754 205.071C218.471 204.491 215.184 207.571 214.414 211.951C213.643 216.331 215.68 220.351 218.963 220.932Z" fill="#3F3F3F"/>
<path opacity="0.1" d="M242.117 221.932C245.399 221.354 247.433 217.335 246.659 212.955C245.885 208.574 242.596 205.492 239.314 206.069C236.031 206.647 233.998 210.666 234.772 215.046C235.546 219.427 238.834 222.509 242.117 221.932Z" fill="black"/>
<path d="M242.117 220.932C245.399 220.355 247.433 216.336 246.659 211.955C245.885 207.575 242.596 204.492 239.314 205.07C236.031 205.647 233.998 209.666 234.772 214.047C235.546 218.427 238.834 221.51 242.117 220.932Z" fill="#3F3F3F"/>
<path opacity="0.2" fill-rule="evenodd" clip-rule="evenodd" d="M230.537 193C226.179 193.003 221.889 194.145 218.048 196.325C214.207 198.504 210.935 201.653 208.521 205.492C207.759 205.169 206.938 205.001 206.107 205C204.488 205 202.934 205.632 201.789 206.757C200.643 207.883 200 209.409 200 211C200.003 211.162 200.012 211.323 200.028 211.484C200.159 209.989 200.856 208.596 201.982 207.581C203.107 206.565 204.579 206.001 206.107 206C206.938 206.001 207.759 206.169 208.521 206.492C210.935 202.653 214.207 199.504 218.048 197.325C221.889 195.145 226.179 194.003 230.537 194C234.896 194.004 239.186 195.146 243.027 197.326C246.867 199.506 250.14 202.656 252.553 206.496C253.315 206.171 254.136 206.002 254.967 206C256.496 206.001 257.969 206.565 259.095 207.581C260.221 208.598 260.918 209.992 261.048 211.488C261.064 211.326 261.072 211.163 261.074 211C261.074 209.409 260.431 207.883 259.285 206.757C258.14 205.632 256.587 205 254.967 205C254.136 205.002 253.315 205.171 252.553 205.496C250.14 201.656 246.867 198.506 243.027 196.326C239.186 194.146 234.896 193.004 230.537 193ZM256.879 218.688C256.812 218.712 256.745 218.736 256.677 218.758C256.712 219.08 256.743 219.403 256.768 219.727C256.805 219.714 256.842 219.701 256.879 219.688C256.936 220.345 256.972 221.004 256.985 221.664C256.993 221.443 256.999 221.221 257.003 221C256.992 220.228 256.951 219.456 256.879 218.688ZM204.207 218.691C204.132 219.459 204.087 220.229 204.072 221C204.079 221.182 204.087 221.365 204.097 221.547C204.114 220.927 204.151 220.308 204.207 219.691C204.24 219.703 204.273 219.714 204.306 219.725C204.335 219.402 204.37 219.079 204.41 218.758C204.342 218.737 204.274 218.715 204.207 218.691ZM253.865 237.922C253.827 238.424 253.826 238.93 253.846 239.434C253.852 239.263 253.852 239.092 253.865 238.922C254.085 241.532 255.176 244.006 257.591 245.369C258.109 245.242 258.689 245.106 259.038 245C255.594 243.907 254.125 241.007 253.865 237.922Z" fill="white"/>
<path opacity="0.2" d="M331.724 60C347.465 60 360.226 47.464 360.226 32C360.226 16.536 347.465 4 331.724 4C315.983 4 303.223 16.536 303.223 32C303.223 47.464 315.983 60 331.724 60Z" fill="black"/>
<path d="M331.724 59C347.465 59 360.226 46.464 360.226 31C360.226 15.536 347.465 3 331.724 3C315.983 3 303.223 15.536 303.223 31C303.223 46.464 315.983 59 331.724 59Z" fill="#28A4E2"/>
<path opacity="0.2" d="M341.763 45.7814C342.312 44.7486 345.464 27.0895 345.915 22.5245C346.403 18.0011 343.861 18.8423 341.522 19.6064C335.783 21.4877 317.639 29.1132 312.673 31.6299C311.45 32.1221 310.922 32.9572 311.811 33.6801C312.577 34.2928 315.38 35.1343 317.64 35.5614C319.567 36.1281 321.064 35.5852 322.446 34.8286C325.766 32.9174 335.66 26.8392 336.192 26.5004C336.725 26.1616 337.308 26.7903 337.01 27.0947C336.712 27.3991 329.705 33.4996 327.405 36.2578C326.186 37.7744 326.222 38.5841 327.474 39.5405C330.283 41.6789 337.788 46.5538 338.905 46.8485C340.328 47.2242 341.162 46.913 341.763 45.7814H341.763Z" fill="black"/>
<path d="M341.763 44.7814C342.312 43.7486 345.464 26.0895 345.915 21.5245C346.403 17.0011 343.861 17.8423 341.522 18.6064C335.783 20.4877 317.639 28.1132 312.673 30.6299C311.45 31.1221 310.922 31.9572 311.811 32.6801C312.577 33.2928 315.38 34.1343 317.64 34.5614C319.567 35.1281 321.064 34.5852 322.446 33.8286C325.766 31.9174 335.66 25.8392 336.192 25.5004C336.725 25.1616 337.308 25.7903 337.01 26.0947C336.712 26.3991 329.705 32.4996 327.405 35.2578C326.186 36.7744 326.222 37.5841 327.474 38.5405C330.283 40.6789 337.788 45.5538 338.905 45.8485C340.328 46.2242 341.162 45.913 341.763 44.7814H341.763Z" fill="white"/>
<path opacity="0.2" d="M331.724 3C324.165 3 316.916 5.94999 311.571 11.201C306.226 16.452 303.223 23.5739 303.223 31C303.228 31.1954 303.235 31.3907 303.245 31.5859C303.355 24.2356 306.404 17.2228 311.732 12.0616C317.061 6.90042 324.242 4.00484 331.724 4C339.177 4.00401 346.332 6.87593 351.656 12.0003C356.979 17.1247 360.048 24.0937 360.204 31.4141C360.212 31.2761 360.219 31.1381 360.226 31C360.226 23.5739 357.223 16.452 351.878 11.201C346.533 5.94999 339.283 3 331.724 3Z" fill="white"/>
<path opacity="0.2" d="M331.725 101C325.516 101 319.561 103.423 315.17 107.737C310.78 112.05 308.313 117.9 308.313 124V127.498C304.195 128.967 301.188 133.557 301.188 139C301.188 145.627 305.643 151 311.138 151H313.315C313.315 151 314.421 150.999 314.421 149.666V139V128.334V124C314.421 119.491 316.244 115.167 319.489 111.979C322.734 108.791 327.136 107 331.725 107C336.315 107 340.716 108.791 343.961 111.979C347.206 115.167 349.029 119.491 349.029 124V128.334V139V149.666C349.029 150.999 350.135 151 350.135 151H352.312C357.807 151 362.262 145.627 362.262 139C362.262 133.557 359.255 128.967 355.137 127.498V124C355.137 117.9 352.67 112.05 348.28 107.737C343.889 103.423 337.934 101 331.725 101Z" fill="black"/>
<path opacity="0.2" d="M331.839 125.002C330.409 124.967 329.11 125.636 328.232 126.674C327.812 126.466 327.444 126.107 327.001 126.045C325.147 125.786 322.895 126.863 322.097 128.848L320.101 133.81C319.758 133.77 319.413 133.669 319.085 133.711C317.869 133.864 316.891 134.462 316.194 135.248C315.498 136.034 315.028 137.069 315.041 138.273C315.054 139.477 315.68 140.777 316.64 141.597C316.64 141.598 316.641 141.599 316.642 141.599L319.325 143.894C320.408 144.82 321.817 145.059 323.131 144.82L323.141 144.922C323.141 144.923 323.141 144.924 323.141 144.926C323.356 147.142 325.394 148.826 327.326 148.982C328.188 149.052 329.099 148.734 329.92 148.269C330.316 150.441 332.442 151.982 334.367 152C336.331 152.018 338.557 150.464 338.93 148.23L338.988 147.887C340.557 148.151 342.38 147.597 343.447 146.191L347.473 140.896C348.234 139.895 348.567 138.496 348.32 137.316C348.073 136.137 347.392 135.221 346.543 134.598C345.693 133.974 344.606 133.595 343.385 133.697C343.033 133.727 342.695 133.902 342.348 134.025L341.566 130.533C341.084 128.378 338.895 126.952 336.972 127.002C336.561 127.013 336.192 127.328 335.783 127.467C335.031 126.037 333.54 125.044 331.841 125.002L331.839 125.002Z" fill="black"/>
<path d="M331.839 124.002C330.409 123.967 329.11 124.637 328.232 125.674C327.812 125.466 327.444 125.107 327.001 125.045C325.147 124.786 322.895 125.863 322.097 127.848L320.101 132.811C319.758 132.771 319.413 132.67 319.085 132.711C317.869 132.865 316.891 133.462 316.194 134.248C315.498 135.034 315.028 136.07 315.041 137.274C315.054 138.477 315.68 139.777 316.64 140.598C316.64 140.598 316.641 140.599 316.642 140.6L319.325 142.895C320.408 143.82 321.817 144.059 323.131 143.82L323.141 143.922C323.141 143.923 323.141 143.925 323.141 143.926C323.356 146.142 325.394 147.826 327.326 147.983C328.188 148.052 329.099 147.734 329.92 147.27C330.316 149.441 332.442 150.983 334.367 151C336.331 151.018 338.557 149.465 338.93 147.231L338.988 146.887C340.557 147.151 342.38 146.597 343.447 145.192L347.473 139.897C348.234 138.895 348.567 137.496 348.32 136.317C348.073 135.137 347.392 134.221 346.543 133.598C345.693 132.975 344.606 132.595 343.385 132.697C343.033 132.727 342.695 132.902 342.348 133.026L341.566 129.533C341.084 127.378 338.895 125.952 336.972 126.002C336.561 126.013 336.192 126.329 335.783 126.467C335.031 125.037 333.54 124.044 331.841 124.002L331.839 124.002Z" fill="#FFC107"/>
<path opacity="0.2" d="M331.838 124.002C330.409 123.967 329.11 124.637 328.232 125.674C327.812 125.466 327.444 125.107 327.001 125.045C325.147 124.786 322.895 125.863 322.097 127.848L320.101 132.811C319.758 132.771 319.413 132.67 319.085 132.711C317.869 132.864 316.891 133.462 316.194 134.248C315.498 135.034 315.028 136.069 315.041 137.273C315.043 137.441 315.06 137.611 315.085 137.781C315.187 136.79 315.596 135.923 316.194 135.248C316.891 134.462 317.869 133.864 319.085 133.711C319.413 133.67 319.758 133.771 320.101 133.811L322.097 128.848C322.895 126.863 325.147 125.786 327.001 126.045C327.444 126.107 327.812 126.466 328.232 126.674C329.11 125.637 330.409 124.967 331.838 125.002H331.84C333.54 125.044 335.031 126.037 335.783 127.467C336.192 127.329 336.561 127.013 336.972 127.002C338.895 126.952 341.084 128.378 341.566 130.533L342.348 134.025C342.695 133.902 343.033 133.727 343.385 133.697C344.606 133.595 345.693 133.974 346.542 134.598C347.392 135.221 348.073 136.137 348.32 137.316C348.337 137.397 348.344 137.48 348.356 137.563C348.399 137.138 348.403 136.715 348.32 136.316C348.073 135.137 347.392 134.221 346.542 133.598C345.693 132.974 344.606 132.595 343.385 132.697C343.033 132.727 342.695 132.902 342.348 133.025L341.566 129.533C341.084 127.378 338.895 125.952 336.972 126.002C336.561 126.013 336.192 126.329 335.783 126.467C335.031 125.037 333.54 124.044 331.84 124.002H331.838Z" fill="white"/>
<path opacity="0.2" d="M316.711 127C315.442 127 314.421 127.892 314.421 129V149C314.421 150.108 315.442 151 316.711 151H318.238C319.507 151 320.528 150.108 320.528 149V129C320.528 127.892 319.507 127 318.238 127H316.711ZM345.212 127C343.944 127 342.922 127.892 342.922 129V149C342.922 150.108 343.944 151 345.212 151H346.739C348.008 151 349.029 150.108 349.029 149V129C349.029 127.892 348.008 127 346.739 127H345.212Z" fill="black"/>
<path d="M311.138 126C305.643 126 301.188 131.373 301.188 138C301.188 144.627 305.643 150 311.138 150H313.315C313.315 150 314.421 150 314.421 148.667V127.333C314.421 126.167 313.35 126 313.35 126H311.138Z" fill="#3F51B5"/>
<path d="M352.312 126C357.807 126 362.262 131.373 362.262 138C362.262 144.627 357.807 150 352.312 150H350.135C350.135 150 349.029 150 349.029 148.667V127.333C349.029 126.167 350.1 126 350.1 126H352.312Z" fill="#3F51B5"/>
<path d="M319.649 137.204L322.333 139.5L326.358 129.5L327.7 143.5L331.725 128.5L334.409 146.5L337.092 130.5L339.776 142.5L343.801 137.204" stroke="#F8382A" stroke-width="3" stroke-linecap="round" stroke-linejoin="round"/>
<path d="M318.238 126H316.711C315.446 126 314.421 126.895 314.421 128V148C314.421 149.105 315.446 150 316.711 150H318.238C319.503 150 320.528 149.105 320.528 148V128C320.528 126.895 319.503 126 318.238 126Z" fill="#2196F3"/>
<path d="M346.739 126H345.212C343.947 126 342.922 126.895 342.922 128V148C342.922 149.105 343.947 150 345.212 150H346.739C348.004 150 349.029 149.105 349.029 148V128C349.029 126.895 348.004 126 346.739 126Z" fill="#2196F3"/>
<path d="M331.725 100C325.516 100 319.561 102.423 315.171 106.737C310.78 111.05 308.313 116.9 308.313 123V138H314.421V123C314.421 118.491 316.244 114.167 319.489 110.979C322.734 107.791 327.136 106 331.725 106C336.315 106 340.716 107.791 343.961 110.979C347.206 114.167 349.03 118.491 349.03 123V138H355.137V123C355.137 116.9 352.67 111.05 348.28 106.737C343.889 102.423 337.934 100 331.725 100Z" fill="#3F51B5"/>
<path opacity="0.2" d="M316.711 126C315.442 126 314.421 126.892 314.421 128V129C314.421 127.892 315.442 127 316.711 127H318.238C319.507 127 320.528 127.892 320.528 129V128C320.528 126.892 319.507 126 318.238 126H316.711Z" fill="white"/>
<path opacity="0.2" d="M345.212 126C343.944 126 342.922 126.892 342.922 128V129C342.922 127.892 343.944 127 345.212 127H346.739C348.008 127 349.029 127.892 349.029 129V128C349.029 126.892 348.008 126 346.739 126H345.212Z" fill="white"/>
<path opacity="0.1" d="M331.725 100C325.516 100 319.561 102.423 315.17 106.737C310.78 111.05 308.313 116.9 308.313 123V124C308.313 117.9 310.78 112.05 315.17 107.737C319.561 103.423 325.516 101 331.725 101C337.934 101 343.889 103.423 348.28 107.737C352.67 112.05 355.137 117.9 355.137 124V123C355.137 116.9 352.67 111.05 348.28 106.737C343.889 102.423 337.934 100 331.725 100ZM308.313 126.498C304.195 127.967 301.188 132.557 301.188 138C301.188 138.15 301.201 138.295 301.206 138.443C301.404 133.248 304.337 128.917 308.313 127.498V126.498ZM355.137 126.498V127.498C359.113 128.917 362.046 133.248 362.244 138.443C362.249 138.295 362.262 138.15 362.262 138C362.262 132.557 359.255 127.967 355.137 126.498Z" fill="white"/>
<path opacity="0.2" d="M331.724 193C330.125 193 328.524 193.586 327.328 194.76L302.98 218.683C300.588 221.032 300.592 224.964 302.983 227.314L327.332 251.236C329.723 253.586 333.729 253.589 336.12 251.24L360.469 227.317C362.86 224.968 362.86 221.033 360.469 218.683L336.12 194.76C334.925 193.586 333.324 193 331.724 193Z" fill="black"/>
<path d="M331.724 192C330.125 192 328.524 192.586 327.328 193.76L302.98 217.683C300.588 220.032 300.592 223.964 302.983 226.314L327.332 250.236C329.723 252.586 333.729 252.589 336.12 250.24L360.469 226.317C362.86 223.968 362.86 220.033 360.469 217.683L336.12 193.76C334.925 192.586 333.324 192 331.724 192Z" fill="#31AFE1"/>
<path opacity="0.2" d="M317.475 204.441L311.367 210.445V235.546L317.475 241.55V241.519L331.789 227.452L346.059 241.472L350.381 237.226L336.111 223.21L350.596 208.984L346.278 204.741L317.475 233.034V204.441Z" fill="black"/>
<path d="M317.475 203.441L311.367 209.445V234.547L317.475 240.551V240.52L331.789 226.453L346.059 240.473L350.381 236.227L336.111 222.211L350.596 207.984L346.278 203.742L317.475 232.035V203.441Z" fill="white"/>
<path opacity="0.2" d="M331.725 192C330.125 192 328.523 192.585 327.327 193.76L302.979 217.684C301.656 218.983 301.07 220.766 301.211 222.498C301.324 221.099 301.91 219.733 302.979 218.684L327.327 194.76C328.523 193.585 330.125 193 331.725 193C333.324 193 334.925 193.585 336.12 194.76L360.468 218.684C361.537 219.733 362.124 221.1 362.238 222.5C362.379 220.767 361.791 218.983 360.468 217.684L336.12 193.76C334.925 192.585 333.324 192 331.725 192Z" fill="white"/>
<g opacity="0.2">
<g opacity="0.2">
<path opacity="0.2" d="M432.799 3C448.563 3 461.3 15.5125 461.3 31C461.3 46.4875 448.563 59 432.799 59C417.034 59 404.297 46.4875 404.297 31C404.297 15.5125 417.034 3 432.799 3Z" fill="black"/>
</g>
</g>
<path d="M432.799 2C448.563 2 461.3 14.5125 461.3 30C461.3 45.4875 448.563 58 432.799 58C417.034 58 404.297 45.4875 404.297 30C404.297 14.5125 417.034 2 432.799 2Z" fill="#763983"/>
<path opacity="0.2" d="M435.7 27.3211C452.512 24.1546 453.157 17 453.157 17C453.157 17 451.833 39.1731 439.547 40.3462C423.978 41.8328 421.346 49 421.346 49C421.346 49 421.028 46.6993 422.009 43.697C423.975 37.6874 429.108 28.5626 435.7 27.3211Z" fill="black"/>
<path d="M435.7 26.3211C452.512 23.1546 453.157 16 453.157 16C453.157 16 451.833 38.1731 439.547 39.3462C423.978 40.8328 421.346 48 421.346 48C421.346 48 421.028 45.6993 422.009 42.697C423.975 36.6874 429.108 27.5626 435.7 26.3211Z" fill="#EB2273"/>
<path opacity="0.2" d="M453.157 16C453.157 16 452.512 23.1538 435.7 26.3203C429.109 27.5618 423.975 36.6877 422.01 42.6973C421.305 44.8534 421.276 46.611 421.312 47.4512C421.357 46.5023 421.523 45.1872 422.01 43.6973C423.975 37.6877 429.109 28.5618 435.7 27.3203C449.694 24.6845 452.451 19.3412 452.994 17.6055C453.097 16.6777 453.157 16 453.157 16Z" fill="white"/>
<path opacity="0.2" d="M424.483 26.4999C438.666 20.6093 437.367 11 437.367 11C437.367 11 445.197 30.6036 433.458 35.1738C420.346 40.2792 421.336 49 421.336 49C421.336 49 416.154 29.9594 424.483 26.4999Z" fill="black"/>
<path d="M424.483 25.4999C438.666 19.6093 437.367 10 437.367 10C437.367 10 445.197 29.6036 433.458 34.1738C420.346 39.2792 421.336 48 421.336 48C421.336 48 416.154 28.9594 424.483 25.4999Z" fill="#FF812D"/>
<path opacity="0.2" d="M437.366 10C437.366 10 437.39 10.4228 437.37 11.0137C437.387 11.0563 439.798 17.1215 439.915 23.2871C440.069 16.7743 437.366 10 437.366 10ZM437.37 11.0508C437.273 13.6352 435.943 20.7403 424.483 25.5C420.662 27.0873 419.696 31.9526 419.757 36.7559C419.843 32.294 420.928 27.9767 424.483 26.5C438.453 20.6977 437.405 11.3316 437.37 11.0508Z" fill="white"/>
<path opacity="0.2" d="M416.782 31.502C424.808 21.215 423.003 14 423.003 14C423.003 14 433.286 26.533 426.289 34.2956C418.472 42.9671 421.403 49 421.403 49C421.403 49 412.179 37.4022 416.782 31.502Z" fill="black"/>
<path d="M416.782 30.502C424.808 20.215 423.003 13 423.003 13C423.003 13 433.286 25.533 426.289 33.2956C418.472 41.9671 421.403 48 421.403 48C421.403 48 412.179 36.4022 416.782 30.502Z" fill="#FFDF55"/>
<g opacity="0.1">
<g opacity="0.1">
<path opacity="0.1" d="M432.799 2C417.034 2 404.297 14.5125 404.297 30C404.297 30.1677 404.308 30.333 404.311 30.5C404.583 15.245 417.204 3 432.799 3C448.393 3 461.014 15.245 461.286 30.5C461.289 30.333 461.3 30.1677 461.3 30C461.3 14.5125 448.563 2 432.799 2Z" fill="white"/>
</g>
</g>
<path opacity="0.2" d="M423.002 13C423.002 13 423.101 13.4326 423.149 14.1895C423.717 14.9016 428.44 20.9991 428.712 27.2031C428.983 20.2963 423.002 13 423.002 13ZM423.155 15.2363C423.112 18.1141 422.182 23.5798 416.781 30.502C415.754 31.8189 415.419 33.421 415.513 35.1133C415.584 33.7942 415.959 32.556 416.781 31.502C422.854 23.7186 423.298 17.7079 423.155 15.2363ZM420.883 45.4883C420.851 46.2556 420.897 46.9131 420.98 47.4414C421.239 47.7925 421.402 48 421.402 48C421.402 48 420.969 47.0927 420.883 45.4883Z" fill="white"/>
<path opacity="0.2" d="M461.3 149.222V104.778C461.3 103.239 460.029 102 458.45 102H407.147C405.568 102 404.297 103.239 404.297 104.778V149.222C404.297 150.761 405.568 152 407.147 152H458.45C460.029 152 461.3 150.761 461.3 149.222Z" fill="black"/>
<path d="M461.3 148.222V103.778C461.3 102.239 460.029 101 458.45 101H407.147C405.568 101 404.297 102.239 404.297 103.778V148.222C404.297 149.761 405.568 151 407.147 151H458.45C460.029 151 461.3 149.761 461.3 148.222Z" fill="#4F4F4F"/>
<path opacity="0.1" d="M407.148 101C405.569 101 404.297 102.238 404.297 103.777V104.777C404.297 103.238 405.569 102 407.148 102H458.449C460.028 102 461.3 103.238 461.3 104.777V103.777C461.3 102.238 460.028 101 458.449 101H407.148Z" fill="white"/>
<path d="M430.764 101L430.843 151H434.835V101H430.764Z" fill="#E14C39"/>
<path opacity="0.2" fill-rule="evenodd" clip-rule="evenodd" d="M422.62 110V113H426.692V110H422.62ZM418.549 116V119H426.692V116H418.549ZM410.406 122V125H426.692V122H410.406ZM406.334 128V131H426.692V128H406.334ZM410.406 134V137H426.692V134H410.406ZM418.549 140V143H426.692V140H418.549Z" fill="black"/>
<path fill-rule="evenodd" clip-rule="evenodd" d="M422.62 109V112H426.692V109H422.62ZM418.549 115V118H426.692V115H418.549ZM410.406 121V124H426.692V121H410.406ZM406.334 127V130H426.692V127H406.334ZM410.406 133V136H426.692V133H410.406ZM418.549 139V142H426.692V139H418.549Z" fill="#83B9F5"/>
<path opacity="0.2" d="M440.942 100H432.799H424.656L428.728 106L432.799 112L436.871 106L440.942 100Z" fill="black"/>
<path d="M440.942 99H432.799H424.656L428.728 105L432.799 111L436.871 105L440.942 99Z" fill="#FF6161"/>
<path opacity="0.2" d="M440.49 115.402C439.74 115.441 438.933 116.089 438.935 116.807L438.907 137.993C438.907 138.95 440.34 139.783 441.16 139.214L456.611 128.585C457.436 128.023 457.434 126.706 456.611 126.143L441.189 115.586C440.983 115.445 440.74 115.389 440.49 115.402L440.49 115.402Z" fill="black"/>
<path d="M440.49 114.402C439.74 114.441 438.933 115.089 438.935 115.807L438.907 136.993C438.907 137.95 440.34 138.783 441.16 138.214L456.611 127.585C457.436 127.023 457.434 125.706 456.611 125.143L441.189 114.586C440.983 114.445 440.74 114.389 440.49 114.402L440.49 114.402Z" fill="#3A7CCA"/>
<path opacity="0.1" d="M440.489 114.402C439.74 114.442 438.933 115.089 438.935 115.807L438.907 136.994C438.907 136.997 438.909 136.999 438.909 137.002L438.935 116.807C438.933 116.089 439.74 115.442 440.489 115.402H440.491C440.741 115.389 440.983 115.445 441.189 115.586L456.611 126.143C456.874 126.322 457.042 126.583 457.138 126.867C457.343 126.26 457.173 125.527 456.611 125.143L441.189 114.586C440.983 114.445 440.741 114.389 440.491 114.402H440.489Z" fill="white"/>
<path opacity="0.1" fill-rule="evenodd" clip-rule="evenodd" d="M422.62 109V110H426.692V109H422.62ZM418.549 115V116H426.692V115H418.549ZM410.406 121V122H426.692V121H410.406ZM406.334 127V128H426.692V127H406.334ZM410.406 133V134H426.692V133H410.406ZM418.549 139V140H426.692V139H418.549Z" fill="white"/>
<path opacity="0.2" d="M432.798 193C431.199 193 429.598 193.586 428.402 194.76L404.054 218.683C401.663 221.033 401.666 224.964 404.058 227.314L428.406 251.236C430.797 253.586 434.804 253.589 437.195 251.24L461.543 227.317C463.934 224.968 463.934 221.033 461.543 218.683L437.195 194.76C435.999 193.586 434.398 193 432.798 193Z" fill="black"/>
<path d="M432.798 192C431.199 192 429.598 192.586 428.402 193.761L404.054 217.683C401.663 220.032 401.666 223.964 404.058 226.314L428.406 250.236C430.797 252.586 434.804 252.589 437.195 250.24L461.543 226.317C463.934 223.968 463.934 220.033 461.543 217.683L437.195 193.761C435.999 192.586 434.398 192 432.798 192Z" fill="#159532"/>
<path opacity="0.2" d="M432.799 192C431.2 192 429.596 192.585 428.401 193.76L404.053 217.684C402.73 218.983 402.144 220.766 402.286 222.498C402.398 221.099 402.984 219.733 404.053 218.684L428.401 194.76C429.596 193.585 431.2 193 432.799 193C434.399 193 435.999 193.585 437.194 194.76L461.542 218.684C462.611 219.733 463.198 221.1 463.312 222.5C463.453 220.767 462.866 218.983 461.542 217.684L437.194 193.76C435.999 192.585 434.399 192 432.799 192Z" fill="white"/>
<path opacity="0.2" d="M409.388 201C407.696 201 406.334 202.338 406.334 204C406.334 205.662 407.696 207 409.388 207H410.406V241C410.406 242.181 410.761 243.335 411.426 244.318C412.091 245.302 413.036 246.07 414.144 246.528C415.251 246.987 416.472 247.113 417.652 246.893C418.833 246.673 419.921 246.116 420.781 245.291L460.708 206.959C462.195 206.755 463.337 205.519 463.337 204C463.337 202.338 461.975 201 460.283 201H446.032C444.34 201 442.978 202.338 442.978 204C442.978 204.889 443.375 205.676 443.996 206.225L422.62 226.748V207H423.638C425.33 207 426.692 205.662 426.692 204C426.692 202.338 425.33 201 423.638 201H409.388Z" fill="black"/>
<path d="M409.388 200C407.696 200 406.334 201.338 406.334 203C406.334 204.662 407.696 206 409.388 206H410.406V240C410.406 241.181 410.761 242.335 411.426 243.318C412.091 244.302 413.036 245.07 414.144 245.528C415.251 245.987 416.472 246.113 417.652 245.893C418.833 245.673 419.921 245.116 420.781 244.291L460.708 205.959C462.195 205.755 463.337 204.519 463.337 203C463.337 201.338 461.975 200 460.283 200H446.032C444.34 200 442.978 201.338 442.978 203C442.978 203.889 443.375 204.676 443.996 205.225L422.62 225.748V206H423.638C425.33 206 426.692 204.662 426.692 203C426.692 201.338 425.33 200 423.638 200H409.388Z" fill="#E4E4E4"/>
<path opacity="0.2" d="M409.388 200C407.696 200 406.334 201.338 406.334 203C406.334 203.172 406.358 203.336 406.386 203.5C406.628 202.079 407.871 201 409.388 201H423.638C425.155 201 426.398 202.079 426.64 203.5C426.669 203.336 426.692 203.172 426.692 203C426.692 201.338 425.33 200 423.638 200H409.388ZM446.032 200C444.34 200 442.978 201.338 442.978 203C442.978 203.165 443.006 203.321 443.032 203.479C443.283 202.068 444.523 201 446.032 201H460.283C461.808 201 463.056 202.09 463.289 203.521C463.319 203.352 463.337 203.178 463.337 203C463.337 201.338 461.975 200 460.283 200H446.032ZM443.521 205.682L422.62 225.748V226.748L443.996 206.225C443.815 206.064 443.66 205.879 443.521 205.682Z" fill="white"/>
</svg>
