<svg width="250" height="147" viewBox="0 0 250 147" fill="none" xmlns="http://www.w3.org/2000/svg">
<path d="M1.99943 125C36.9988 107.5 189.692 88 157 130.5C124.307 173 21 11.0001 12.9998 53.5C4.99968 95.9999 237.499 -72.0001 237.499 84.5" stroke="#F2F2F8" stroke-opacity="0.8" stroke-width="2" stroke-linecap="round" stroke-linejoin="round" stroke-dasharray="8 8"/>
<path d="M236.133 98.5001C236.312 98.8095 236.642 99.0001 236.999 99.0001C237.356 99.0001 237.686 98.8095 237.865 98.5001L243.061 89.5001C243.24 89.1907 243.24 88.8095 243.061 88.5001C242.883 88.1907 242.552 88.0001 242.195 88.0001L231.803 88.0001C231.446 88.0001 231.115 88.1907 230.937 88.5001C230.758 88.8095 230.758 89.1907 230.937 89.5001L236.133 98.5001Z" stroke="#F2F2F8" stroke-opacity="0.8" stroke-width="2" stroke-linejoin="round"/>
</svg>
