<?xml version="1.0" encoding="UTF-8" standalone="no"?>
<svg
   xmlns:ns0="http://ns.adobe.com/SaveForWeb/1.0/"
   xmlns:ns="http://ns.adobe.com/Variables/1.0/"
   xmlns:i="http://ns.adobe.com/AdobeIllustrator/10.0/"
   xmlns:dc="http://purl.org/dc/elements/1.1/"
   xmlns:cc="http://creativecommons.org/ns#"
   xmlns:rdf="http://www.w3.org/1999/02/22-rdf-syntax-ns#"
   xmlns:svg="http://www.w3.org/2000/svg"
   xmlns="http://www.w3.org/2000/svg"
   xmlns:sodipodi="http://sodipodi.sourceforge.net/DTD/sodipodi-0.dtd"
   xmlns:inkscape="http://www.inkscape.org/namespaces/inkscape"
   i:viewOrigin="251 467"
   i:rulerOrigin="0 0"
   i:pageBounds="0 792 612 0"
   width="108.758"
   height="144.133"
   viewBox="0 0 108.758 144.133"
   overflow="visible"
   enable-background="new 0 0 108.758 144.133"
   xml:space="preserve"
   version="1.1"
   id="svg133"
   sodipodi:docname="debian-label.svg"
   inkscape:version="1.0.2 (e86c870879, 2021-01-15)"><defs
   id="defs137" /><sodipodi:namedview
   pagecolor="#ffffff"
   bordercolor="#666666"
   borderopacity="1"
   objecttolerance="10"
   gridtolerance="10"
   guidetolerance="10"
   inkscape:pageopacity="0"
   inkscape:pageshadow="2"
   inkscape:window-width="1366"
   inkscape:window-height="705"
   id="namedview135"
   showgrid="false"
   inkscape:zoom="5.4202908"
   inkscape:cx="54.379002"
   inkscape:cy="97.137141"
   inkscape:window-x="0"
   inkscape:window-y="27"
   inkscape:window-maximized="1"
   inkscape:current-layer="Layer_1" />
	<metadata
   id="metadata90">
		<ns:variableSets>
			<ns:variableSet
   varSetName="binding1"
   locked="none">
				<ns:variables />
				<ns:sampleDataSets />
			</ns:variableSet>
		</ns:variableSets>
		<ns0:sfw>
			<ns0:slices />
			<ns0:sliceSourceBounds
   y="322.867"
   x="251"
   width="108.758"
   height="144.133"
   bottomLeftOrigin="true" />
		</ns0:sfw>
	<rdf:RDF><cc:Work
     rdf:about=""><dc:format>image/svg+xml</dc:format><dc:type
       rdf:resource="http://purl.org/dc/dcmitype/StillImage" /></cc:Work></rdf:RDF></metadata>
	<g
   id="Layer_1"
   i:layer="yes"
   i:dimmedPercent="50"
   i:rgbTrio="#4F008000FFFF">
		<g
   id="g130">
			
			
			
			
			
			
			
			
			
			
			
			
			<path
   i:knockout="Off"
   d="M13.437,125.506c-0.045,0.047-0.045,7.506-0.138,9.453c-0.092,1.574-0.232,4.957-3.568,4.957     c-3.429,0-4.263-3.939-4.541-5.652c-0.324-1.9-0.324-3.477-0.324-4.17c0-2.225,0.139-8.436,5.375-8.436     c1.576,0,2.456,0.465,3.151,0.834L13.437,125.506z M0,130.975c0,13.066,6.951,13.066,7.97,13.066     c2.873,0,4.727-1.576,5.514-4.309l0.093,4.123c0.881-0.047,1.761-0.139,3.197-0.139c0.51,0,0.926,0,1.298,0.047     c0.371,0,0.741,0.045,1.158,0.092c-0.741-1.482-1.297-4.818-1.297-12.049c0-7.043,0-18.951,0.602-22.566     c-1.667,0.789-3.105,1.299-6.256,1.576c1.251,1.344,1.251,2.039,1.251,8.154c-0.879-0.277-1.992-0.602-3.892-0.602     C1.344,118.369,0,125.598,0,130.975"
   id="path116" />
			<path
   i:knockout="Off"
   d="M25.13,128.609c0.047-3.846,0.835-7.275,4.124-7.275c3.615,0,3.891,3.984,3.799,7.275H25.13z      M37.64,129.074c0-5.422-1.065-10.752-7.923-10.752c-9.452,0-9.452,10.475-9.452,12.697c0,9.406,4.216,13.113,11.306,13.113     c3.149,0,4.68-0.461,5.514-0.695c-0.046-1.668,0.185-2.734,0.465-4.17c-0.975,0.604-2.226,1.391-5.006,1.391     c-7.229,0-7.322-6.582-7.322-8.852H37.55L37.64,129.074"
   id="path118" />
			<path
   i:knockout="Off"
   d="M52.715,131.066c0,4.309-0.787,10.102-6.162,10.102c-0.742,0-1.668-0.141-2.27-0.279     c-0.093-1.668-0.093-4.541-0.093-7.877c0-3.986,0.416-6.068,0.742-7.09c0.972-3.289,3.15-3.334,3.566-3.334     C52.02,122.588,52.715,127.453,52.715,131.066z M39.417,136.117c0,3.43,0,5.375-0.556,6.857c1.9,0.742,4.262,1.158,7.09,1.158     c1.807,0,7.043,0,9.869-5.791c1.344-2.688,1.807-6.303,1.807-9.037c0-1.668-0.186-5.328-1.529-7.646     c-1.296-2.176-3.382-3.289-5.605-3.289c-4.449,0-5.746,3.707-6.44,5.607c0-2.363,0.045-10.611,0.415-14.828     c-3.011,1.391-4.866,1.621-6.857,1.807c1.807,0.74,1.807,3.801,1.807,13.764V136.117"
   id="path120" />
			<path
   i:knockout="Off"
   d="M66.535,143.855c-0.928-0.139-1.578-0.232-2.922-0.232c-1.48,0-2.502,0.094-3.566,0.232     c0.463-0.881,0.648-1.299,0.787-4.309c0.186-4.125,0.232-15.154-0.092-17.471c-0.232-1.762-0.648-2.039-1.297-2.502     c3.799-0.371,4.865-0.648,6.625-1.482c-0.369,2.037-0.418,3.059-0.418,6.162C65.561,140.242,65.514,141.955,66.535,143.855"
   id="path122" />
			<path
   i:knockout="Off"
   d="M81.373,130.74c-0.092,2.92-0.139,4.959-0.928,6.58c-0.973,2.086-2.594,2.688-3.799,2.688     c-2.783,0-3.383-2.316-3.383-4.586c0-4.355,3.893-4.682,5.652-4.682H81.373z M68.629,136.441c0,2.92,0.881,5.838,3.477,7.09     c1.158,0.51,2.316,0.51,2.688,0.51c4.264,0,5.699-3.152,6.58-5.098c-0.047,2.039,0,3.289,0.139,4.912     c0.834-0.047,1.668-0.139,3.059-0.139c0.787,0,1.529,0.092,2.316,0.139c-0.51-0.787-0.787-1.252-0.928-3.059     c-0.092-1.76-0.092-3.521-0.092-5.977l0.047-9.453c0-3.523-0.928-6.998-7.879-6.998c-4.586,0-7.273,1.391-8.617,2.086     c0.557,1.02,1.02,1.898,1.436,3.893c1.809-1.576,4.172-2.41,6.58-2.41c3.848,0,3.848,2.549,3.848,6.162     c-0.881-0.045-1.623-0.137-2.875-0.137C72.521,127.963,68.629,130.23,68.629,136.441"
   id="path124" />
			<path
   i:knockout="Off"
   d="M108.063,139.268c0.047,1.576,0.047,3.244,0.695,4.588c-1.021-0.092-1.623-0.232-3.521-0.232     c-1.113,0-1.715,0.094-2.596,0.232c0.184-0.602,0.279-0.834,0.371-1.623c0.139-1.064,0.232-4.633,0.232-5.885v-5.004     c0-2.178,0-5.33-0.141-6.441c-0.092-0.787-0.322-2.918-3.012-2.918c-2.641,0-3.521,1.945-3.846,3.521     c-0.369,1.621-0.369,3.383-0.369,10.24c0.045,5.932,0.045,6.486,0.508,8.109c-0.787-0.092-1.76-0.184-3.15-0.184     c-1.113,0-1.854,0.045-2.779,0.184c0.324-0.742,0.51-1.113,0.602-3.707c0.094-2.549,0.279-15.061-0.141-18.025     c-0.23-1.809-0.695-2.225-1.203-2.688c3.754-0.186,4.957-0.789,6.117-1.389v4.91c0.555-1.438,1.713-4.635,6.348-4.635     c5.793,0,5.838,4.217,5.885,6.996V139.268"
   id="path126" />
			<path
   i:knockout="Off"
   fill="#A80030"
   d="M66.926,111.533l-3.838,3.836l-3.836-3.836l3.836-3.836L66.926,111.533"
   id="path128" />
		</g>
	</g>
</svg>
