<?xml version="1.0" encoding="UTF-8" standalone="no"?>
<svg
   xmlns:dc="http://purl.org/dc/elements/1.1/"
   xmlns:cc="http://creativecommons.org/ns#"
   xmlns:rdf="http://www.w3.org/1999/02/22-rdf-syntax-ns#"
   xmlns:svg="http://www.w3.org/2000/svg"
   xmlns="http://www.w3.org/2000/svg"
   xmlns:sodipodi="http://sodipodi.sourceforge.net/DTD/sodipodi-0.dtd"
   xmlns:inkscape="http://www.inkscape.org/namespaces/inkscape"
   version="1.1"
   id="Layer_1"
   x="0px"
   y="0px"
   width="1000"
   height="1000"
   viewBox="0 0 1000 1000"
   enable-background="new 0 0 2620.333 1473.938"
   xml:space="preserve"
   sodipodi:docname="og-art.svg"
   inkscape:version="1.0.2 (e86c870879, 2021-01-15)"><metadata
   id="metadata151"><rdf:RDF><cc:Work
       rdf:about=""><dc:format>image/svg+xml</dc:format><dc:type
         rdf:resource="http://purl.org/dc/dcmitype/StillImage" /><dc:title /></cc:Work></rdf:RDF></metadata><defs
   id="defs149" /><sodipodi:namedview
   pagecolor="#ffffff"
   bordercolor="#666666"
   borderopacity="1"
   objecttolerance="10"
   gridtolerance="10"
   guidetolerance="10"
   inkscape:pageopacity="0"
   inkscape:pageshadow="2"
   inkscape:window-width="1366"
   inkscape:window-height="705"
   id="namedview147"
   showgrid="false"
   showguides="true"
   inkscape:guide-bbox="true"
   inkscape:zoom="0.09345712"
   inkscape:cx="771.13293"
   inkscape:cy="410.95724"
   inkscape:window-x="0"
   inkscape:window-y="27"
   inkscape:window-maximized="1"
   inkscape:current-layer="Layer_1"
   inkscape:document-rotation="0"><sodipodi:guide
     position="500,668.29708"
     orientation="-1,0"
     id="guide179"
     inkscape:label=""
     inkscape:locked="false"
     inkscape:color="rgb(0,0,255)" /><sodipodi:guide
     position="29.425259,500"
     orientation="0,1"
     id="guide181"
     inkscape:label=""
     inkscape:locked="false"
     inkscape:color="rgb(0,0,255)" /></sodipodi:namedview>
<rect
   x="0"
   y="0"
   fill="#010027"
   width="1000"
   height="1000"
   id="rect2"
   style="stroke-width:0.424065" />




<radialGradient
   id="SVGID_1_"
   cx="787.875"
   cy="490.603"
   r="596.09119"
   gradientTransform="matrix(0.7846,0,0,0.9019,191.8331,36.9629)"
   gradientUnits="userSpaceOnUse">
	<stop
   offset="0"
   style="stop-color:#010027;stop-opacity:0"
   id="stop12" />
	<stop
   offset="0.8533"
   style="stop-color:#010027;stop-opacity:0.8533"
   id="stop14" />
	<stop
   offset="1"
   style="stop-color:#010027"
   id="stop16" />
</radialGradient>





<radialGradient
   id="SVGID_2_"
   cx="496.27051"
   cy="124.1484"
   r="261.90799"
   gradientTransform="matrix(2.2175,0,0,1.8903,-300.98,243.2599)"
   gradientUnits="userSpaceOnUse">
	<stop
   offset="0"
   style="stop-color:#FFFFFF"
   id="stop29" />
	<stop
   offset="0.6613"
   style="stop-color:#010027"
   id="stop31" />
</radialGradient>






<g
   id="g177"
   transform="matrix(1.1090435,0,0,1.1090435,-954.84262,-875.73478)"><path
     fill="none"
     stroke="#01a495"
     stroke-width="16"
     stroke-miterlimit="10"
     d="m 1377.452,1241.391 c 1.53,71.059 -90.93,143.354 -90.93,143.354 0,0 -127.914,-33.869 -154.618,-114.257 -27.118,-81.634 43.054,-153.46 114.113,-154.988 71.059,-1.532 129.903,54.832 131.435,125.891 z"
     id="path38" /><rect
     x="1228.447"
     y="1091.604"
     transform="matrix(-0.9074,0.4204,-0.4204,-0.9074,2975.3408,1833.8523)"
     fill="#010027"
     width="114.297"
     height="306.35999"
     id="rect40" /><g
     id="g56">
	<path
   fill="#ffffff"
   d="m 1335.65,1339.962 c -0.075,0.075 -0.075,12.321 -0.227,15.517 -0.15,2.585 -0.381,8.139 -5.857,8.139 -5.629,0 -7,-6.467 -7.456,-9.279 -0.53,-3.119 -0.53,-5.707 -0.53,-6.846 0,-3.651 0.227,-13.85 8.823,-13.85 2.587,0 4.033,0.764 5.172,1.371 z m -22.059,8.977 c 0,21.449 11.411,21.449 13.086,21.449 4.716,0 7.76,-2.587 9.051,-7.073 l 0.152,6.769 c 1.445,-0.078 2.891,-0.229 5.249,-0.229 0.838,0 1.521,0 2.131,0.077 0.608,0 1.215,0.073 1.902,0.151 -1.219,-2.433 -2.129,-7.908 -2.129,-19.78 0,-11.563 0,-31.11 0.987,-37.045 -2.737,1.294 -5.098,2.131 -10.27,2.587 2.052,2.205 2.052,3.348 2.052,13.385 -1.444,-0.454 -3.271,-0.987 -6.389,-0.987 -13.617,0 -15.822,11.868 -15.822,20.696"
   id="path42" />
	<path
   fill="#ffffff"
   d="m 1354.846,1345.057 c 0.078,-6.316 1.371,-11.944 6.771,-11.944 5.935,0 6.389,6.54 6.236,11.944 z m 20.539,0.762 c 0,-8.901 -1.75,-17.651 -13.009,-17.651 -15.517,0 -15.517,17.194 -15.517,20.844 0,15.44 6.92,21.527 18.561,21.527 5.172,0 7.685,-0.759 9.053,-1.141 -0.075,-2.74 0.304,-4.488 0.762,-6.849 -1.6,0.994 -3.652,2.285 -8.217,2.285 -11.869,0 -12.02,-10.805 -12.02,-14.531 h 20.236 l 0.151,-4.484"
   id="path44" />
	<path
   fill="#ffffff"
   d="m 1400.129,1349.09 c 0,7.073 -1.291,16.583 -10.112,16.583 -1.219,0 -2.74,-0.23 -3.728,-0.458 -0.153,-2.74 -0.153,-7.455 -0.153,-12.932 0,-6.543 0.683,-9.961 1.219,-11.64 1.597,-5.4 5.172,-5.474 5.855,-5.474 5.78,10e-4 6.919,7.989 6.919,13.921 z m -21.827,8.29 c 0,5.632 0,8.825 -0.913,11.258 3.118,1.218 6.995,1.901 11.638,1.901 2.967,0 11.563,0 16.202,-9.508 2.207,-4.411 2.967,-10.346 2.967,-14.837 0,-2.737 -0.305,-8.746 -2.51,-12.552 -2.129,-3.57 -5.554,-5.396 -9.201,-5.396 -7.306,0 -9.435,6.085 -10.573,9.202 0,-3.878 0.072,-17.419 0.681,-24.341 -4.943,2.282 -7.988,2.66 -11.257,2.965 2.968,1.216 2.968,6.24 2.968,22.598 v 18.71"
   id="path46" />
	<path
   fill="#ffffff"
   d="m 1422.819,1370.084 c -1.522,-0.229 -2.591,-0.381 -4.798,-0.381 -2.428,0 -4.104,0.153 -5.854,0.381 0.761,-1.446 1.064,-2.133 1.293,-7.073 0.305,-6.773 0.382,-24.88 -0.151,-28.683 -0.381,-2.894 -1.063,-3.348 -2.129,-4.107 6.236,-0.609 7.986,-1.063 10.876,-2.434 -0.606,3.344 -0.687,5.023 -0.687,10.115 -0.149,26.25 -0.226,29.063 1.45,32.182"
   id="path48" />
	<path
   fill="#ffffff"
   d="m 1447.179,1348.554 c -0.152,4.793 -0.228,8.142 -1.522,10.802 -1.601,3.425 -4.26,4.412 -6.237,4.412 -4.568,0 -5.556,-3.8 -5.556,-7.528 0,-7.149 6.394,-7.686 9.277,-7.686 z m -20.923,9.359 c 0,4.793 1.446,9.583 5.71,11.64 1.899,0.836 3.802,0.836 4.412,0.836 6.999,0 9.355,-5.174 10.801,-8.369 -0.077,3.35 0,5.4 0.229,8.064 1.368,-0.078 2.738,-0.229 5.022,-0.229 1.29,0 2.51,0.15 3.801,0.229 -0.837,-1.292 -1.291,-2.057 -1.522,-5.022 -0.152,-2.889 -0.152,-5.78 -0.152,-9.812 l 0.078,-15.52 c 0,-5.785 -1.524,-11.487 -12.935,-11.487 -7.528,0 -11.94,2.281 -14.146,3.425 0.915,1.673 1.675,3.114 2.358,6.39 2.969,-2.587 6.85,-3.955 10.801,-3.955 6.318,0 6.318,4.186 6.318,10.116 -1.445,-0.074 -2.665,-0.226 -4.721,-0.226 -9.664,10e-4 -16.054,3.724 -16.054,13.92"
   id="path50" />
	<path
   fill="#ffffff"
   d="m 1490.993,1362.553 c 0.077,2.587 0.077,5.326 1.142,7.533 -1.677,-0.152 -2.666,-0.382 -5.78,-0.382 -1.827,0 -2.816,0.153 -4.263,0.382 0.303,-0.988 0.459,-1.369 0.609,-2.666 0.229,-1.746 0.381,-7.604 0.381,-9.66 v -8.216 c 0,-3.575 0,-8.749 -0.231,-10.571 -0.149,-1.293 -0.526,-4.792 -4.944,-4.792 -4.336,0 -5.779,3.193 -6.314,5.781 -0.604,2.659 -0.604,5.552 -0.604,16.81 0.072,9.738 0.072,10.648 0.832,13.313 -1.293,-0.151 -2.889,-0.304 -5.17,-0.304 -1.828,0 -3.045,0.075 -4.563,0.304 0.533,-1.218 0.837,-1.826 0.987,-6.085 0.156,-4.186 0.46,-24.727 -0.229,-29.593 -0.379,-2.969 -1.142,-3.65 -1.975,-4.412 6.162,-0.306 8.137,-1.295 10.04,-2.281 v 8.063 c 0.913,-2.362 2.813,-7.609 10.422,-7.609 9.512,0 9.584,6.923 9.661,11.485 v 22.9"
   id="path52" />
	<path
   fill="#a80030"
   d="m 1423.46,1317.022 -6.301,6.297 -6.298,-6.297 6.298,-6.297 6.301,6.297"
   id="path54" />
</g><circle
     opacity="0.4"
     fill="#010027"
     cx="1234.7061"
     cy="1053.4919"
     r="193.41"
     id="circle58" /><g
     id="g84">
	<path
   fill="#ffffff"
   d="m 1270.88,1250.889 c -2.342,0.03 0.443,1.203 3.501,1.676 0.848,-0.662 1.608,-1.328 2.293,-1.977 -1.901,0.465 -3.839,0.476 -5.794,0.301"
   id="path60" />
	<path
   fill="#ffffff"
   d="m 1283.453,1247.753 c 1.4,-1.927 2.416,-4.035 2.776,-6.214 -0.318,1.552 -1.156,2.893 -1.952,4.311 -4.38,2.758 -0.414,-1.637 0,-3.311 -4.709,5.933 -0.65,3.557 -0.821,5.214"
   id="path62" />
	<path
   fill="#ffffff"
   d="m 1288.1,1235.673 c 0.283,-4.219 -0.832,-2.883 -1.206,-1.275 0.436,0.229 0.783,2.974 1.206,1.275"
   id="path64" />
	<path
   fill="#ffffff"
   d="m 1261.995,1178.005 c 1.25,0.223 2.704,0.395 2.494,0.694 1.373,-0.303 1.682,-0.575 -2.494,-0.694"
   id="path66" />
	<path
   fill="#ffffff"
   d="m 1264.49,1178.699 -0.879,0.184 0.82,-0.076 0.059,-0.108"
   id="path68" />
	<path
   fill="#ffffff"
   d="m 1303.485,1237.272 c 0.138,3.788 -1.107,5.63 -2.233,8.885 l -2.028,1.008 c -1.655,3.222 0.166,2.046 -1.022,4.604 -2.588,2.299 -7.849,7.196 -9.533,7.644 -1.229,-0.026 0.833,-1.45 1.102,-2.009 -3.462,2.378 -2.776,3.569 -8.076,5.018 l -0.155,-0.348 c -13.063,6.148 -31.205,-6.031 -30.966,-22.646 -0.14,1.054 -0.396,0.791 -0.685,1.214 -0.677,-8.547 3.947,-17.133 11.742,-20.642 7.624,-3.775 16.565,-2.228 22.023,2.866 -2.998,-3.929 -8.97,-8.095 -16.042,-7.709 -6.934,0.113 -13.419,4.517 -15.585,9.301 -3.548,2.234 -3.962,8.618 -5.509,9.787 -2.083,15.305 3.917,21.912 14.065,29.69 1.592,1.077 0.448,1.241 0.661,2.062 -3.371,-1.578 -6.456,-3.963 -8.997,-6.88 1.348,1.97 2.803,3.886 4.683,5.393 -3.182,-1.074 -7.429,-7.705 -8.666,-7.975 5.479,9.813 22.229,17.208 31.006,13.539 -4.063,0.151 -9.218,0.083 -13.779,-1.604 -1.92,-0.984 -4.523,-3.023 -4.056,-3.405 11.974,4.471 24.339,3.383 34.696,-4.92 2.637,-2.053 5.515,-5.545 6.349,-5.593 -1.254,1.885 0.215,0.906 -0.747,2.57 2.622,-4.233 -1.143,-1.725 2.713,-7.313 l 1.424,1.959 c -0.533,-3.52 4.366,-7.785 3.868,-13.346 1.123,-1.701 1.252,1.831 0.06,5.743 1.652,-4.341 0.438,-5.037 0.859,-8.619 0.458,1.204 1.065,2.481 1.374,3.754 -1.077,-4.194 1.103,-7.062 1.645,-9.499 -0.536,-0.235 -1.662,1.854 -1.923,-3.099 0.038,-2.15 0.601,-1.128 0.814,-1.657 -0.419,-0.243 -1.527,-1.893 -2.201,-5.055 0.485,-0.745 1.306,1.927 1.97,2.036 -0.428,-2.516 -1.164,-4.434 -1.194,-6.362 -1.943,-4.063 -0.69,0.542 -2.263,-1.744 -2.07,-6.449 1.714,-1.496 1.973,-4.425 3.132,4.539 4.917,11.579 5.741,14.494 -0.627,-3.556 -1.64,-7.001 -2.875,-10.332 0.954,0.403 -1.536,-7.312 1.238,-2.203 -2.96,-10.89 -12.666,-21.066 -21.595,-25.839 1.089,1 2.468,2.253 1.977,2.451 -4.444,-2.643 -3.664,-2.851 -4.299,-3.967 -3.615,-1.475 -3.856,0.119 -6.249,0 -6.82,-3.621 -8.134,-3.235 -14.41,-5.5 l 0.285,1.336 c -4.517,-1.506 -5.262,0.566 -10.146,0 -0.296,-0.229 1.566,-0.839 3.099,-1.061 -4.369,0.577 -4.165,-0.862 -8.438,0.158 1.051,-0.738 2.167,-1.229 3.29,-1.856 -3.558,0.217 -8.505,2.072 -6.978,0.383 -5.811,2.593 -16.127,6.231 -21.918,11.663 l -0.183,-1.218 c -2.654,3.186 -11.571,9.511 -12.281,13.641 l -0.709,0.165 c -1.379,2.337 -2.276,4.985 -3.37,7.388 -1.803,3.079 -2.646,1.188 -2.389,1.669 -3.549,7.201 -5.318,13.251 -6.839,18.215 1.083,1.622 0.025,9.771 0.434,16.292 -1.781,32.215 22.606,63.485 49.268,70.704 3.906,1.402 9.716,1.351 14.659,1.489 -5.831,-1.667 -6.583,-0.882 -12.265,-2.863 -4.099,-1.933 -4.996,-4.136 -7.897,-6.653 l 1.147,2.03 c -5.69,-2.016 -3.309,-2.495 -7.94,-3.961 l 1.228,-1.601 c -1.848,-0.142 -4.889,-3.107 -5.717,-4.756 l -2.022,0.081 c -2.421,-2.988 -3.717,-5.147 -3.621,-6.821 l -0.653,1.163 c -0.741,-1.269 -8.921,-11.225 -4.678,-8.906 -0.788,-0.717 -1.837,-1.171 -2.973,-3.239 l 0.864,-0.984 c -2.04,-2.631 -3.761,-6 -3.63,-7.121 1.09,1.47 1.846,1.746 2.596,1.998 -5.158,-12.801 -5.451,-0.705 -9.355,-13.03 l 0.825,-0.066 c -0.633,-0.957 -1.021,-1.991 -1.528,-3.009 l 0.361,-3.582 c -3.712,-4.291 -1.039,-18.26 -0.5,-25.92 0.368,-3.114 3.101,-6.43 5.173,-11.63 l -1.262,-0.218 c 2.417,-4.215 13.801,-16.932 19.077,-16.279 2.554,-3.21 -0.508,-0.014 -1.009,-0.818 5.612,-5.807 7.376,-4.102 11.16,-5.148 4.084,-2.422 -3.503,0.947 -1.566,-0.923 7.059,-1.803 5,-4.101 14.209,-5.014 0.973,0.551 -2.254,0.853 -3.062,1.569 5.879,-2.878 18.61,-2.223 26.884,1.596 9.59,4.487 20.372,17.74 20.801,30.211 l 0.483,0.13 c -0.244,4.959 0.76,10.693 -0.983,15.956 l 1.174,-2.493"
   id="path70" />
	<path
   fill="#ffffff"
   d="m 1245.307,1254.103 -0.331,1.642 c 1.541,2.094 2.763,4.359 4.729,5.99 -1.416,-2.758 -2.465,-3.897 -4.398,-7.632"
   id="path72" />
	<path
   fill="#ffffff"
   d="m 1248.944,1253.961 c -0.814,-0.904 -1.295,-1.99 -1.837,-3.068 0.516,1.899 1.577,3.532 2.561,5.194 l -0.724,-2.126"
   id="path74" />
	<path
   fill="#ffffff"
   d="m 1313.363,1239.957 -0.343,0.868 c -0.629,4.479 -1.996,8.915 -4.083,13.028 2.306,-4.339 3.795,-9.084 4.426,-13.896"
   id="path76" />
	<path
   fill="#ffffff"
   d="m 1262.46,1176.88 c 1.583,-0.577 3.894,-0.318 5.577,-0.7 -2.193,0.186 -4.372,0.295 -6.527,0.568 l 0.95,0.132"
   id="path78" />
	<path
   fill="#ffffff"
   d="m 1206.844,1206.455 c 0.362,3.378 -2.542,4.689 0.641,2.461 1.709,-3.848 -0.665,-1.062 -0.641,-2.461"
   id="path80" />
	<path
   fill="#ffffff"
   d="m 1203.098,1222.096 c 0.736,-2.254 0.867,-3.606 1.147,-4.912 -2.028,2.594 -0.934,3.146 -1.147,4.912"
   id="path82" />
</g></g>










<g
   id="g116">
</g>
<g
   id="g118">
</g>
<g
   id="g120">
</g>
<g
   id="g122">
</g>
<g
   id="g124">
</g>
<g
   id="g126">
</g>
<g
   id="g128">
</g>
<g
   id="g130">
</g>
<g
   id="g132">
</g>
<g
   id="g134">
</g>
<g
   id="g136">
</g>
<g
   id="g138">
</g>
<g
   id="g140">
</g>
<g
   id="g142">
</g>
<g
   id="g144">
</g>
</svg>
